<?xml version="1.0" encoding="UTF-8"?><svg id="Layer_2" xmlns="http://www.w3.org/2000/svg" viewBox="0 0 67.34 82.33"><defs><style>.cls-1{fill:#3e9791;}.cls-2{fill:#274776;}.cls-3{fill:#9c7346;}.cls-4{fill:#765e47;}</style></defs><g id="Layer_1-2"><path class="cls-4" d="M46.91,27.68c.31.21.79-.73.93-.96,1.33-2.19,1.68-5.15,1.77-7.67.8.72,1.04,2.17,1.2,3.2,1.15,7.11-1.36,18.24-6.96,23.14-1.19,1.04-2.9,2.24-4.5,2.42l.99-.9c5.48-6.19,3.99-15.74.05-22.35-1.8-3.02-4.15-5.23-6.8-7.49,1.46,0,3.05.83,4.32,1.52,3.66,2.01,7.12,5.33,8.99,9.08Z"/><path class="cls-3" d="M36.96,25.77c3.6,3.62,5.76,9.25,4.87,14.36-.03.2-.23.85-.41.85-.67-1.26-1.15-2.39-2.07-3.5-4.43-5.3-12.9-7.26-19.45-5.62-1.67.42-3.19,1.21-4.81,1.75-.22-.23.56-1,.71-1.17,4.12-4.45,11.86-5.27,17.44-3.68-.97-3.48-3.27-6.44-5.93-8.8,3.52,1.07,7.04,3.2,9.64,5.81Z"/><path class="cls-3" d="M55.36,34.33c.39.39,3.96-1.61,4.55-1.98.17-.11.09-.41.22-.36.22.2.34.22.18.54s-1.13,1.45-1.44,1.8c-1.22,1.39-2.85,2.84-4.35,3.92-.67.48-4.79,3.16-5.27,2.73.71-1.52,1.64-2.91,2.25-4.49.25-.65.56-1.62.76-2.3,1.11-3.91,1.17-7.88.77-11.9l1.47,2.39c1.27,3.04,1.41,6.43.87,9.65Z"/><path class="cls-2" d="M33.43,21.21l-5.12-5.21-.27.09c.41.47,1.21,1.2.99,1.89-4.27-1.66-8.61-4.49-9.44-9.34,6.99.22,11.58,6.62,13.84,12.58Z"/><path class="cls-3" d="M18.03,24.2c-1.82-2.12.8-3.5,2.72-3.55s6.6,1.32,5.53,3.92c-.99,2.39-6.75,1.37-8.25-.38Z"/><path class="cls-4" d="M43.27,13.34c3.59-.81,5.49,7.86,1.78,7.5-2.86-.28-4.33-6.93-1.78-7.5Z"/><path class="cls-2" d="M19.95,27.32c.04.31-.41.17-.63.18-3.11.12-6.48-.1-9.26,1.53,1.92-.09,3.95-.35,5.93-.45.1.46-.12.31-.34.46-2.43,1.72-6.62,2.43-9.37,1.24,2.89-4.61,9-4.44,13.66-2.96Z"/><path class="cls-1" d="M16.17,19.41l-4.19-2.73-2.46-.87c-.18.14,3.51,2.2,3.59,2.69-3.1.18-6.45-1.62-7.73-4.49,3.5-.69,7.41.6,9.71,3.32.5.59,1.09,1.24,1.07,2.07Z"/><path class="cls-1" d="M40.26,11.14l-.77-2.56c-.1-.72-.74-2.15-1.21-2.74-.13-.17-.3-.3-.45-.45,0,1.27.67,2.6.63,3.95-.46-.08-.97-.83-1.23-1.2-1.69-2.42-1.97-4.9-1.47-7.79,1.55.38,2.9,2.54,3.5,3.96.84,2,1.28,4.71.99,6.83Z"/><path class="cls-1" d="M11.2,24.75c.1.11.56.16.39.41-.77-.66-1.9-.58-2.72-.87-.25-.09-.24-.34-.49-.42-1.2-.36-2.44-.62-3.7-.51l2.97,1.07.62.46c-2.81.69-6.24.13-8.09-2.25,3.68-1.76,8.34-.92,11.03,2.1Z"/><path class="cls-1" d="M57.87,8.81c.21.14.89,3.23.9,3.69.06,1.77-.73,4.52-1.77,5.96-.16.23-.18.5-.57.42.5-1.63.59-3.34.54-5.03-.51-.09-.29.13-.4.39-.33.82-.67,1.64-.94,2.48-.7-1.73-.47-4.01.24-5.69.19-.46,1.38-2.64,2.01-2.21Z"/><path class="cls-2" d="M37.15,9.59c.88.88,1.16,2.08,1.63,3.13.09.2.33.22.39.37.49,1.2.79,2.7.73,3.99l-1.83-3.47c-.25-.4-1.3-2-1.58-2.19-.13-.09-.49-.2-.54,0,.7,1.1.97,2.43,1.26,3.69-.25.27-1.54-1.42-1.69-1.63-1.15-1.57-2.02-3.59-1.54-5.55.37-.26,2.82,1.32,3.17,1.67Z"/><path class="cls-2" d="M21.15,14.63c.34.29,1.51,1.61,1.83,2.03.46.61,1.06,1.44,1.11,2.22-.83-.68-1.58-1.49-2.43-2.15-.77-.6-2.01-1.67-2.96-1.53l2.51,2.7c.05.25-.01.34-.26.26-2.29-.68-5-3.16-5.49-5.57,2.06-.13,4.14.71,5.69,2.05Z"/><path class="cls-3" d="M60.17,25.02c3.51-.53.67,6.51-2.12,5.64-2.07-.65-.23-5.28,2.12-5.64Z"/><path class="cls-1" d="M33.07,14.2c-3.22-1.28-5.76-4.18-6.11-7.73,3.2,1.28,5.69,4.27,6.11,7.73Z"/><path class="cls-2" d="M47.45,9.53l-.71-.85c-.09-.25-.63-3.91-1.27-3.28l.19.98-.19,1.9c-1.3-2.03-2.33-4.56-.99-6.83,2.66,1.66,3.55,5.13,2.96,8.09Z"/><path class="cls-2" d="M25.34,8.63c-2.89-.46-5.11-3.25-5.39-6.11,2.59,1.06,5.12,3.15,5.39,6.11Z"/><path class="cls-2" d="M65.07,17.43c.13,2.61-1.83,5.37-4.49,5.75-.03-2.59,1.83-5.42,4.49-5.75Z"/><path class="cls-1" d="M19.05,11.14c-.4.43-2.53-2.38-3.23-1.89l1.44,1.89c-.39.46-2.13-.86-2.5-1.18-.99-.84-1.87-1.96-1.99-3.31,1.22-.03,2.78.48,3.76,1.18.46.33,2.95,2.86,2.53,3.31Z"/><path class="cls-1" d="M28.76.54c2.2,1.59,3.89,4.19,3.23,7.01-1.26-.34-3.23-3.06-3.23-4.22V.54Z"/><path class="cls-2" d="M12.76,32.54c-.68,2.6-4.1,3.38-6.47,3.41.67-2.69,3.93-3.7,6.47-3.41Z"/><path class="cls-2" d="M53.56,9.17c-.5-.08-.3.1-.41.39-.21.59-.37,1.32-.49,1.94-.26.04-.24-.31-.3-.5-.4-1.27-.39-3.37.17-4.57.81-1.72,1.31-.89,1.78.46.67,1.89.39,4.54-.67,6.23-.55.05-.09-.19-.09-.27v-3.68Z"/><path class="cls-1" d="M43.85,12.4c-.33.25-1.5-1.4-1.65-1.67-.94-1.64-.78-3.17-.5-4.98.18-.19,1.3.98,1.44,1.17,1.19,1.6,1.37,3.62.72,5.48Z"/><path class="cls-1" d="M6.64,27.15c.24.37-.6.95-.9,1.15-1.57,1.05-3.97,1.6-5.74.73,1.18-1.63,2.92-2.39,4.95-2.25.26.02,1.64.29,1.69.37Z"/><path class="cls-2" d="M16.17,23.72c-1.77.52-3.64-.03-5.03-1.16-.23-.18-1.41-1.3-1.26-1.53,2.55-.7,5.05.43,6.29,2.69Z"/><path class="cls-2" d="M58.95,19.95c.21,2.11-.82,4.41-2.87,5.21-.08-.34-.19-.59-.17-.96.01-.27.66-2.83.75-2.95.08-.11.48-.16.67-.32.48-.39.94-1.02,1.63-.98Z"/><path class="cls-2" d="M52.3,12.94c1,1.99.95,4.36-.71,5.93-.85-1.8-1.04-3.22-.1-5.04.09-.18.53-1.15.81-.9Z"/><path class="cls-1" d="M62.19,13.48c.48,1.63.15,3.1-.9,4.4-.44.55-1.3,1.6-1.44.37-.19-1.7.45-3.45,1.8-4.5.18-.14.23-.35.54-.27Z"/><path class="cls-1" d="M12.88,11.03c.19.21,1.09,1.8.96,1.91-1.95.04-3.88-1.4-4.49-3.23,1.15.08,2.72.45,3.53,1.32Z"/><path class="cls-2" d="M5.84,17.79c.62.1,1.99,1.14,2.24,1.72.19.42-.97.46-1.16.46-1.31-.02-3.39-.86-3.87-2.17.86.1,1.97-.13,2.79,0Z"/><path class="cls-2" d="M27.14,5.03c-1.76-.45-2.81-2.21-2.87-3.95,1.81.52,3.25,1.94,2.87,3.95Z"/><path class="cls-1" d="M50.14,12.22c-1.12-.68-1.54-2.24-1.41-3.48s.53-1.64,1.24-.39.63,2.52.17,3.87Z"/><path class="cls-2" d="M34.15,4.31c-.5.33-1.38-1.22-1.49-1.65-.23-.87-.19-1.81.06-2.66,1.37.03,2.07,3.89,1.43,4.31Z"/><path class="cls-1" d="M65.96,22.29c-.05,1.67-1.31,3.36-3.05,3.41.26-1.65,1.28-3.22,3.05-3.41Z"/><path class="cls-1" d="M19.77,7.55c-1.49-.12-2.94-1.57-3.05-3.05,1.61.34,2.96,1.29,3.05,3.05Z"/><path class="cls-2" d="M50.15,6.47c-.7.58-1.45-1.85-1.45-2.43-.03-2.53,1.63-.2,1.65,1.26,0,.17-.15,1.13-.2,1.17Z"/><path class="cls-1" d="M6.83,32c.34.45-1.54,1.13-1.79,1.17-.78.15-1.56.07-2.34.08-.32-.28,1.35-1.13,1.57-1.21.84-.29,1.71-.33,2.56-.05Z"/><path class="cls-2" d="M40.62.9c.4-.42,1.28,1.14,1.35,1.43.22.83.27,3.01-.81,1.71-.77-.92-.64-2.04-.54-3.14Z"/><path class="cls-2" d="M48.71,15.1c-.42.11-.3-.11-.41-.23-.9-1.02-1.26-2.22-.85-3.55,1.46.55,1.59,2.46,1.26,3.77Z"/><path class="cls-2" d="M64.89,27.14c-.15,1.43-1.48,2.42-2.87,2.51-.06-1.36,1.6-2.53,2.87-2.51Z"/><path class="cls-2" d="M55,17.98c.3.91.4,2.54-.72,2.87-.3-.91-.4-2.54.72-2.87Z"/><rect class="cls-1" x="2.54" y="49.54" width="28.45" height="14.23"/><rect class="cls-2" x="38.89" y="49.54" width="28.45" height="14.23"/><rect class="cls-4" x="2.54" y="68.11" width="28.45" height="14.23"/><rect class="cls-3" x="38.89" y="68.11" width="28.45" height="14.23"/></g></svg>