<?xml version="1.0" encoding="UTF-8"?><svg id="Layer_2" xmlns="http://www.w3.org/2000/svg" viewBox="0 0 50.16 14.23"><defs><style>.cls-1{fill:#fff;}.cls-2{fill:#274776;}</style></defs><g id="Layer_1-2"><rect class="cls-2" width="50.16" height="14.23"/><path class="cls-1" d="M10.07,9.13h-3.5l-.67,1.83h-.81l2.81-7.59h.87l2.79,7.59h-.81l-.67-1.83ZM9.84,8.49l-1.52-4.16-1.52,4.16h3.04Z"/><path class="cls-1" d="M19,8.58h-1.56v1.57h-.46v-1.57h-1.55v-.42h1.55v-1.58h.46v1.58h1.56v.42Z"/><path class="cls-1" d="M27.49,10.96l-1.9-3.21h-1.42v3.21h-.77V3.27h2.31c.86,0,1.51.21,1.95.62.44.41.67.95.67,1.62,0,.56-.16,1.03-.48,1.42-.32.39-.79.65-1.41.76l1.98,3.27h-.92ZM24.17,7.12h1.55c.6,0,1.05-.15,1.36-.44.3-.29.46-.69.46-1.18s-.15-.9-.44-1.17c-.29-.27-.76-.41-1.39-.41h-1.54v3.2Z"/><path class="cls-1" d="M36.07,8.58h-1.56v1.57h-.46v-1.57h-1.55v-.42h1.55v-1.58h.46v1.58h1.56v.42Z"/><path class="cls-1" d="M45.08,3.27v7.69h-.77v-3.6h-4.17v3.6h-.77V3.27h.77v3.45h4.17v-3.45h.77Z"/></g></svg>