<?xml version="1.0" encoding="UTF-8"?><svg id="Layer_2" xmlns="http://www.w3.org/2000/svg" viewBox="0 0 16.56 18.69"><defs><style>.cls-1{fill:#3e9791;}.cls-2{fill:#274776;}</style></defs><g id="Layer_1-2"><path class="cls-2" d="M7.9,18.69l.09-7.31-.25-.13c-.05.63,0,1.71-.64,2.03-1.83-4.2-2.87-9.28,0-13.28,4.76,5.12,3.45,12.89.81,18.69Z"/><path class="cls-1" d="M7.86,17.49l-1.58-2.15c-.33-.65-1.42-1.78-2.06-2.18-.18-.11-.39-.18-.57-.27.43,1.2,1.5,2.23,1.92,3.51-.46.08-1.2-.46-1.56-.72C1.6,13.98.5,11.74,0,8.85c1.59-.16,3.59,1.41,4.63,2.55,1.47,1.6,2.79,4,3.23,6.09Z"/><path class="cls-1" d="M8.74,17.51l1.57-2.16c.33-.65,1.41-1.78,2.05-2.19.18-.11.39-.18.57-.27-.43,1.2-1.49,2.23-1.91,3.52.46.08,1.2-.46,1.55-.72,2.39-1.72,3.48-3.97,3.97-6.86-1.59-.15-3.58,1.43-4.62,2.57-1.46,1.61-2.77,4.02-3.2,6.11Z"/><path class="cls-1" d="M4.92,7.06c.2.52-1.79.67-2.04.65-.79-.07-1.52-.36-2.28-.56-.23-.35,1.6-.73,1.84-.74.89-.05,1.74.14,2.48.65Z"/><path class="cls-1" d="M4.35,4.95c.15.38-1.32.49-1.5.48-.58-.05-1.12-.26-1.67-.41-.17-.26,1.18-.53,1.35-.54.65-.04,1.28.11,1.82.48Z"/><path class="cls-1" d="M3.92,2.85c.11.28-.95.36-1.09.34-.42-.04-.81-.19-1.21-.3-.12-.19.85-.39.98-.39.47-.03.93.08,1.32.34Z"/><path class="cls-1" d="M15.57,7.06c.2.52-1.79.67-2.04.65-.79-.07-1.52-.36-2.28-.56-.23-.35,1.6-.73,1.84-.74.89-.05,1.74.14,2.48.65Z"/><path class="cls-1" d="M15,4.95c.15.38-1.32.49-1.5.48-.58-.05-1.12-.26-1.67-.41-.17-.26,1.18-.53,1.35-.54.65-.04,1.28.11,1.82.48Z"/><path class="cls-1" d="M14.57,2.85c.11.28-.95.36-1.09.34-.42-.04-.81-.19-1.21-.3-.12-.19.85-.39.98-.39.47-.03.93.08,1.32.34Z"/></g></svg>