<?xml version="1.0" encoding="UTF-8"?><svg id="Layer_2" xmlns="http://www.w3.org/2000/svg" xmlns:xlink="http://www.w3.org/1999/xlink" viewBox="0 0 58.11 54.38"><defs><style>.cls-1{stroke:url(#linear-gradient-8);}.cls-1,.cls-2,.cls-3,.cls-4,.cls-5,.cls-6,.cls-7,.cls-8,.cls-9,.cls-10,.cls-11,.cls-12,.cls-13,.cls-14,.cls-15{stroke-linecap:round;stroke-miterlimit:10;}.cls-1,.cls-2,.cls-3,.cls-4,.cls-5,.cls-6,.cls-7,.cls-8,.cls-9,.cls-10,.cls-11,.cls-13,.cls-14,.cls-15{fill:none;}.cls-16{fill:#fff;}.cls-2{stroke:url(#linear-gradient);}.cls-3{stroke:url(#linear-gradient-7);}.cls-4{stroke:url(#linear-gradient-10);}.cls-5{stroke:url(#linear-gradient-3);}.cls-6{stroke:url(#linear-gradient-2);}.cls-7{stroke:url(#linear-gradient-6);}.cls-8{stroke:url(#linear-gradient-9);}.cls-17{opacity:.8;}.cls-9{stroke:url(#linear-gradient-11);}.cls-10{stroke:url(#linear-gradient-5);}.cls-11{stroke:url(#linear-gradient-13);}.cls-12{fill:#8c6239;stroke:url(#linear-gradient-15);}.cls-13{stroke:url(#linear-gradient-14);}.cls-14{stroke:url(#linear-gradient-4);}.cls-15{stroke:url(#linear-gradient-12);}</style><linearGradient id="linear-gradient" x1="-2551.7" y1="1947.23" x2="-2502.73" y2="1947.23" gradientTransform="translate(-1931.82 -2500.03) rotate(-90)" gradientUnits="userSpaceOnUse"><stop offset="0" stop-color="#008885"/><stop offset="1" stop-color="#8c6239"/></linearGradient><linearGradient id="linear-gradient-2" y1="1949.33" y2="1949.33" xlink:href="#linear-gradient"/><linearGradient id="linear-gradient-3" y1="1951.43" y2="1951.43" xlink:href="#linear-gradient"/><linearGradient id="linear-gradient-4" y1="1953.53" y2="1953.53" xlink:href="#linear-gradient"/><linearGradient id="linear-gradient-5" y1="1955.63" y2="1955.63" xlink:href="#linear-gradient"/><linearGradient id="linear-gradient-6" y1="1957.72" y2="1957.72" xlink:href="#linear-gradient"/><linearGradient id="linear-gradient-7" y1="1959.82" y2="1959.82" xlink:href="#linear-gradient"/><linearGradient id="linear-gradient-8" y1="1961.92" y2="1961.92" xlink:href="#linear-gradient"/><linearGradient id="linear-gradient-9" y1="1964.02" y2="1964.02" xlink:href="#linear-gradient"/><linearGradient id="linear-gradient-10" y1="1966.12" y2="1966.12" xlink:href="#linear-gradient"/><linearGradient id="linear-gradient-11" y1="1968.22" y2="1968.22" xlink:href="#linear-gradient"/><linearGradient id="linear-gradient-12" y1="1970.32" y2="1970.32" xlink:href="#linear-gradient"/><linearGradient id="linear-gradient-13" y1="1972.42" y2="1972.42" xlink:href="#linear-gradient"/><linearGradient id="linear-gradient-14" y1="1974.51" y2="1974.51" xlink:href="#linear-gradient"/><linearGradient id="linear-gradient-15" x1="-2551.7" y1="1960.87" x2="-2502.73" y2="1960.87" xlink:href="#linear-gradient"/></defs><g id="Layer_1-2"><g class="cls-17"><path class="cls-16" d="M28.63.34v-.34s-.11,0-.29.06v-.06s-.1,0-.29.03v-.03s-.1,0-.29.02v-.02s-.1,0-.29.01h0s-.1-.01-.29,0h0S0,0,0,27.19s27.19,27.19,27.19,27.19h0c.19,0,.29,0,.29,0v-.02c.18.01.29.02.29.02v-.02c.18.02.29.02.29.02v-.04c.18.03.29.04.29.04v-.08c.18.07.29.08.29.08v-.4c.17.38.29.4.29.4V0s-.11,0-.29.34Z"/><path class="cls-16" d="M30.92,0h0c-.19,0-.29,0-.29,0h0c-.18,0-.29,0-.29,0v.02c-.18-.02-.29-.02-.29-.02v.03c-.18-.03-.29-.03-.29-.03v.06c-.18-.06-.29-.06-.29-.06v.34c-.17-.34-.29-.34-.29-.34v54.38s.11-.03.29-.4v.4s.11,0,.29-.08v.08s.1,0,.29-.04v.04s.1,0,.29-.02v.02s.1,0,.29-.02v.02s.1,0,.29-.01h0s27.19-.47,27.19-27.18S30.92,0,30.92,0Z"/></g><path class="cls-2" d="M27.41,51.18s-23.99-.42-23.99-23.99S27.41,3.2,27.41,3.2"/><path class="cls-6" d="M27.66,51.18s-20.3-.42-20.3-23.99S27.66,3.2,27.66,3.2"/><path class="cls-5" d="M27.92,51.18s-16.61-.42-16.61-23.99S27.92,3.2,27.92,3.2"/><path class="cls-14" d="M28.17,51.18s-12.92-.42-12.92-23.99S28.17,3.2,28.17,3.2"/><path class="cls-10" d="M28.42,51.18s-9.23-.42-9.23-23.99S28.42,3.2,28.42,3.2"/><path class="cls-7" d="M28.68,51.18s-5.54-.42-5.54-23.99S28.68,3.2,28.68,3.2"/><path class="cls-3" d="M28.93,51.18s-1.85-.42-1.85-23.99,1.85-23.99,1.85-23.99"/><path class="cls-1" d="M29.18,51.18s1.85-.42,1.85-23.99-1.85-23.99-1.85-23.99"/><path class="cls-8" d="M29.44,51.18s5.54-.42,5.54-23.99S29.44,3.2,29.44,3.2"/><path class="cls-4" d="M29.69,51.18s9.23-.42,9.23-23.99S29.69,3.2,29.69,3.2"/><path class="cls-9" d="M29.94,51.18s12.92-.42,12.92-23.99S29.94,3.2,29.94,3.2"/><path class="cls-15" d="M30.2,51.18s16.61-.42,16.61-23.99S30.2,3.2,30.2,3.2"/><path class="cls-11" d="M30.45,51.18s20.3-.42,20.3-23.99S30.45,3.2,30.45,3.2"/><path class="cls-13" d="M30.7,51.18s23.99-.42,23.99-23.99S30.7,3.2,30.7,3.2"/><path class="cls-12" d="M29.06,3.2c.21,0,13.8.19,13.8,23.99s-13.81,23.99-13.81,23.99c0,0-13.8-.42-13.8-23.99S29.05,3.2,29.06,3.2Z"/><path class="cls-16" d="M35.48,20.71h-10.1c.08,1.06.47,1.9,1.18,2.54s1.57.96,2.59.96c1.47,0,2.51-.62,3.12-1.85h2.95c-.4,1.22-1.12,2.21-2.17,2.99-1.05.78-2.35,1.16-3.9,1.16-1.26,0-2.4-.28-3.4-.85-1-.57-1.78-1.37-2.35-2.4-.57-1.03-.85-2.23-.85-3.59s.28-2.56.83-3.59,1.33-1.83,2.33-2.39c1-.56,2.15-.84,3.44-.84s2.36.27,3.34.82c.98.54,1.74,1.31,2.28,2.29s.82,2.12.82,3.4c0,.5-.03.94-.1,1.34ZM32.72,18.5c-.02-1.01-.38-1.82-1.08-2.42-.7-.61-1.58-.91-2.62-.91-.94,0-1.75.3-2.42.9-.67.6-1.07,1.41-1.2,2.44h7.32Z"/><path class="cls-16" d="M26.45,40.95c-.82-.38-1.48-.89-1.96-1.54-.48-.65-.74-1.37-.77-2.17h2.83c.05.56.32,1.03.8,1.4.49.38,1.1.56,1.84.56s1.36-.15,1.79-.44c.42-.3.64-.68.64-1.14,0-.5-.24-.86-.71-1.1-.47-.24-1.22-.5-2.24-.79-.99-.27-1.8-.54-2.42-.79-.62-.26-1.16-.65-1.62-1.18s-.68-1.22-.68-2.09c0-.7.21-1.35.62-1.93s1.01-1.04,1.79-1.38c.78-.34,1.67-.5,2.68-.5,1.5,0,2.72.38,3.64,1.14s1.41,1.8,1.48,3.11h-2.74c-.05-.59-.29-1.06-.72-1.42-.43-.35-1.02-.53-1.75-.53s-1.27.14-1.66.41c-.38.27-.58.63-.58,1.08,0,.35.13.65.38.89s.57.43.94.56c.37.14.91.31,1.63.52.96.26,1.75.52,2.36.78.62.26,1.15.65,1.6,1.16.45.51.68,1.19.7,2.04,0,.75-.21,1.42-.62,2.02-.42.59-1,1.06-1.76,1.39s-1.65.5-2.68.5-1.97-.19-2.8-.56Z"/></g></svg>
