<?xml version="1.0" encoding="UTF-8"?><svg id="Layer_2" xmlns="http://www.w3.org/2000/svg" xmlns:xlink="http://www.w3.org/1999/xlink" viewBox="0 0 58.11 54.38"><defs><style>.cls-1{opacity:.6;}.cls-2{stroke:url(#linear-gradient-8);}.cls-2,.cls-3,.cls-4,.cls-5,.cls-6,.cls-7,.cls-8,.cls-9,.cls-10,.cls-11,.cls-12,.cls-13,.cls-14,.cls-15,.cls-16{stroke-linecap:round;stroke-miterlimit:10;}.cls-2,.cls-3,.cls-4,.cls-5,.cls-6,.cls-7,.cls-8,.cls-9,.cls-10,.cls-11,.cls-13,.cls-14,.cls-15,.cls-16{fill:none;}.cls-17,.cls-12{fill:#fff;}.cls-3{stroke:url(#linear-gradient);}.cls-4{stroke:url(#linear-gradient-7);}.cls-5{stroke:url(#linear-gradient-10);}.cls-6{stroke:url(#linear-gradient-3);}.cls-7{stroke:url(#linear-gradient-2);}.cls-8{stroke:url(#linear-gradient-6);}.cls-9{stroke:url(#linear-gradient-9);}.cls-18{opacity:.8;}.cls-19{fill:#008885;}.cls-10{stroke:url(#linear-gradient-11);}.cls-11{stroke:url(#linear-gradient-5);}.cls-12{stroke:url(#linear-gradient-15);}.cls-13{stroke:url(#linear-gradient-13);}.cls-14{stroke:url(#linear-gradient-14);}.cls-15{stroke:url(#linear-gradient-4);}.cls-16{stroke:url(#linear-gradient-12);}</style><linearGradient id="linear-gradient" x1="-2644.07" y1="1893.11" x2="-2595.09" y2="1893.11" gradientTransform="translate(-1877.7 -2592.39) rotate(-90)" gradientUnits="userSpaceOnUse"><stop offset="0" stop-color="#008885"/><stop offset="1" stop-color="#8c6239"/></linearGradient><linearGradient id="linear-gradient-2" y1="1895.21" y2="1895.21" xlink:href="#linear-gradient"/><linearGradient id="linear-gradient-3" y1="1897.31" y2="1897.31" xlink:href="#linear-gradient"/><linearGradient id="linear-gradient-4" y1="1899.41" y2="1899.41" xlink:href="#linear-gradient"/><linearGradient id="linear-gradient-5" y1="1901.51" y2="1901.51" xlink:href="#linear-gradient"/><linearGradient id="linear-gradient-6" y1="1903.61" y2="1903.61" xlink:href="#linear-gradient"/><linearGradient id="linear-gradient-7" y1="1905.71" y2="1905.71" xlink:href="#linear-gradient"/><linearGradient id="linear-gradient-8" y1="1907.8" y2="1907.8" xlink:href="#linear-gradient"/><linearGradient id="linear-gradient-9" y1="1909.9" y2="1909.9" xlink:href="#linear-gradient"/><linearGradient id="linear-gradient-10" y1="1912" y2="1912" xlink:href="#linear-gradient"/><linearGradient id="linear-gradient-11" y1="1914.1" y2="1914.1" xlink:href="#linear-gradient"/><linearGradient id="linear-gradient-12" y1="1916.2" y2="1916.2" xlink:href="#linear-gradient"/><linearGradient id="linear-gradient-13" y1="1918.3" y2="1918.3" xlink:href="#linear-gradient"/><linearGradient id="linear-gradient-14" y1="1920.4" y2="1920.4" xlink:href="#linear-gradient"/><linearGradient id="linear-gradient-15" x1="-2644.07" y1="1906.76" x2="-2595.09" y2="1906.76" xlink:href="#linear-gradient"/></defs><g id="Layer_1-2"><g class="cls-18"><path class="cls-17" d="M28.63.34v-.34s-.11,0-.29.06v-.06s-.1,0-.29.03v-.03s-.1,0-.29.02v-.02s-.1,0-.29.01h0s-.1-.01-.29,0h0S0,0,0,27.19s27.19,27.19,27.19,27.19h0c.19,0,.29,0,.29,0v-.02c.18.01.29.02.29.02v-.02c.18.02.29.02.29.02v-.04c.18.03.29.04.29.04v-.08c.18.07.29.08.29.08v-.4c.17.38.29.4.29.4V0s-.11,0-.29.34Z"/><path class="cls-17" d="M30.92,0h0c-.19,0-.29,0-.29,0h0c-.18,0-.29,0-.29,0v.02c-.18-.02-.29-.02-.29-.02v.03c-.18-.03-.29-.03-.29-.03v.06c-.18-.06-.29-.06-.29-.06v.34c-.17-.34-.29-.34-.29-.34v54.38s.11-.03.29-.4v.4s.11,0,.29-.08v.08s.1,0,.29-.04v.04s.1,0,.29-.02v.02s.1,0,.29-.02v.02s.1,0,.29-.01h0s27.19-.47,27.19-27.18S30.92,0,30.92,0Z"/></g><g class="cls-1"><path class="cls-3" d="M27.41,51.18s-23.99-.42-23.99-23.99S27.41,3.2,27.41,3.2"/><path class="cls-7" d="M27.66,51.18s-20.3-.42-20.3-23.99S27.66,3.2,27.66,3.2"/><path class="cls-6" d="M27.92,51.18s-16.61-.42-16.61-23.99S27.92,3.2,27.92,3.2"/><path class="cls-15" d="M28.17,51.18s-12.92-.42-12.92-23.99S28.17,3.2,28.17,3.2"/><path class="cls-11" d="M28.42,51.18s-9.23-.42-9.23-23.99S28.42,3.2,28.42,3.2"/><path class="cls-8" d="M28.68,51.18s-5.54-.42-5.54-23.99S28.68,3.2,28.68,3.2"/><path class="cls-4" d="M28.93,51.18s-1.85-.42-1.85-23.99,1.85-23.99,1.85-23.99"/><path class="cls-2" d="M29.18,51.18s1.85-.42,1.85-23.99-1.85-23.99-1.85-23.99"/><path class="cls-9" d="M29.44,51.18s5.54-.42,5.54-23.99S29.44,3.2,29.44,3.2"/><path class="cls-5" d="M29.69,51.18s9.23-.42,9.23-23.99S29.69,3.2,29.69,3.2"/><path class="cls-10" d="M29.94,51.18s12.92-.42,12.92-23.99S29.94,3.2,29.94,3.2"/><path class="cls-16" d="M30.2,51.18s16.61-.42,16.61-23.99S30.2,3.2,30.2,3.2"/><path class="cls-13" d="M30.45,51.18s20.3-.42,20.3-23.99S30.45,3.2,30.45,3.2"/><path class="cls-14" d="M30.7,51.18s23.99-.42,23.99-23.99S30.7,3.2,30.7,3.2"/></g><path class="cls-12" d="M29.06,3.2c.21,0,13.8.19,13.8,23.99s-13.81,23.99-13.81,23.99c0,0-13.8-.42-13.8-23.99S29.05,3.2,29.06,3.2Z"/><path class="cls-19" d="M35.48,20.82h-10.1c.08,1.06.47,1.9,1.18,2.54s1.57.96,2.59.96c1.47,0,2.51-.62,3.12-1.85h2.95c-.4,1.22-1.12,2.21-2.17,2.99-1.05.78-2.35,1.16-3.9,1.16-1.26,0-2.4-.28-3.4-.85-1-.57-1.78-1.37-2.35-2.4-.57-1.03-.85-2.23-.85-3.59s.28-2.56.83-3.59,1.33-1.83,2.33-2.39c1-.56,2.15-.84,3.44-.84s2.36.27,3.34.82c.98.54,1.74,1.31,2.28,2.29s.82,2.12.82,3.4c0,.5-.03.94-.1,1.34ZM32.72,18.61c-.02-1.01-.38-1.82-1.08-2.42-.7-.61-1.58-.91-2.62-.91-.94,0-1.75.3-2.42.9-.67.6-1.07,1.41-1.2,2.44h7.32Z"/><path class="cls-19" d="M32.54,28.62c.82.43,1.47,1.07,1.93,1.92.46.85.7,1.87.7,3.07v7.8h-2.71v-7.39c0-1.18-.3-2.09-.89-2.72-.59-.63-1.4-.95-2.42-.95s-1.84.32-2.44.95c-.6.63-.9,1.54-.9,2.72v7.39h-2.74v-13.22h2.74v1.51c.45-.54,1.02-.97,1.72-1.27.7-.3,1.44-.46,2.22-.46,1.04,0,1.97.22,2.8.65Z"/></g></svg>