<?xml version="1.0" encoding="UTF-8"?><svg id="Layer_2" xmlns="http://www.w3.org/2000/svg" viewBox="0 0 607.26 108.16"><defs><style>.cls-1{fill:#666;}.cls-2{fill:#3e9791;}</style></defs><g id="Logo"><path class="cls-1" d="M18.26,78.55v4.75H6.03v7.52h9.37v4.66H6.03v12.39H.15v-29.32h18.1Z"/><path class="cls-1" d="M28.46,106.23c-2.3-1.29-4.12-3.07-5.46-5.36-1.34-2.28-2.02-4.86-2.02-7.75s.67-5.42,2.02-7.71c1.34-2.28,3.16-4.07,5.46-5.35s4.82-1.93,7.56-1.93,5.3.64,7.58,1.93c2.28,1.29,4.09,3.07,5.42,5.35,1.33,2.28,2,4.85,2,7.71s-.67,5.47-2,7.75c-1.33,2.28-3.14,4.07-5.44,5.36-2.3,1.29-4.82,1.93-7.56,1.93s-5.26-.64-7.56-1.93ZM40.68,101.71c1.34-.8,2.39-1.94,3.15-3.42.76-1.48,1.13-3.21,1.13-5.17s-.38-3.67-1.13-5.14c-.76-1.47-1.81-2.6-3.15-3.38-1.34-.78-2.9-1.18-4.66-1.18s-3.33.39-4.68,1.18c-1.36.78-2.42,1.91-3.17,3.38-.76,1.47-1.13,3.19-1.13,5.14s.38,3.68,1.13,5.17c.76,1.48,1.81,2.62,3.17,3.42,1.36.8,2.92,1.2,4.68,1.2s3.32-.4,4.66-1.2Z"/><path class="cls-1" d="M70.5,107.87l-6.47-11.42h-2.77v11.42h-5.88v-29.32h11c2.27,0,4.2.4,5.8,1.2,1.6.8,2.79,1.88,3.59,3.23.8,1.36,1.2,2.88,1.2,4.56,0,1.93-.56,3.68-1.68,5.23-1.12,1.55-2.79,2.62-5,3.21l7.01,11.89h-6.8ZM61.26,92.03h4.91c1.6,0,2.79-.38,3.57-1.15.78-.77,1.18-1.84,1.18-3.21s-.39-2.39-1.18-3.13c-.78-.74-1.97-1.11-3.57-1.11h-4.91v8.61Z"/><path class="cls-1" d="M119.89,78.55l-9.91,19.11v10.21h-5.88v-10.21l-9.95-19.11h6.64l6.3,13.4,6.26-13.4h6.55Z"/><path class="cls-1" d="M129.34,106.23c-2.3-1.29-4.12-3.07-5.46-5.36-1.34-2.28-2.02-4.86-2.02-7.75s.67-5.42,2.02-7.71c1.34-2.28,3.16-4.07,5.46-5.35s4.82-1.93,7.56-1.93,5.3.64,7.58,1.93c2.28,1.29,4.09,3.07,5.42,5.35,1.33,2.28,1.99,4.85,1.99,7.71s-.66,5.47-1.99,7.75c-1.33,2.28-3.14,4.07-5.44,5.36-2.3,1.29-4.82,1.93-7.56,1.93s-5.26-.64-7.56-1.93ZM141.57,101.71c1.34-.8,2.39-1.94,3.15-3.42.76-1.48,1.13-3.21,1.13-5.17s-.38-3.67-1.13-5.14-1.81-2.6-3.15-3.38-2.9-1.18-4.66-1.18-3.33.39-4.68,1.18c-1.36.78-2.42,1.91-3.17,3.38-.76,1.47-1.13,3.19-1.13,5.14s.38,3.68,1.13,5.17c.76,1.48,1.81,2.62,3.17,3.42,1.36.8,2.92,1.2,4.68,1.2s3.32-.4,4.66-1.2Z"/><path class="cls-1" d="M162.06,78.55v18.14c0,1.99.52,3.51,1.55,4.56,1.04,1.05,2.49,1.58,4.37,1.58s3.37-.52,4.41-1.58c1.04-1.05,1.55-2.57,1.55-4.56v-18.14h5.92v18.1c0,2.49-.54,4.6-1.62,6.32-1.08,1.72-2.52,3.02-4.33,3.88-1.81.87-3.82,1.3-6.03,1.3s-4.17-.43-5.94-1.3c-1.78-.87-3.19-2.16-4.22-3.88-1.04-1.72-1.55-3.83-1.55-6.32v-18.1h5.88Z"/><path class="cls-1" d="M200.66,107.87l-6.47-11.42h-2.77v11.42h-5.88v-29.32h11c2.27,0,4.2.4,5.8,1.2,1.6.8,2.79,1.88,3.59,3.23.8,1.36,1.2,2.88,1.2,4.56,0,1.93-.56,3.68-1.68,5.23s-2.79,2.62-5,3.21l7.01,11.89h-6.8ZM191.42,92.03h4.91c1.6,0,2.79-.38,3.57-1.15.78-.77,1.18-1.84,1.18-3.21s-.39-2.39-1.18-3.13c-.78-.74-1.97-1.11-3.57-1.11h-4.91v8.61Z"/><path class="cls-1" d="M251.06,78.55v29.32h-5.88v-12.47h-12.56v12.47h-5.88v-29.32h5.88v12.05h12.56v-12.05h5.88Z"/><path class="cls-1" d="M262.73,83.3v7.35h9.87v4.66h-9.87v7.77h11.13v4.79h-17.01v-29.36h17.01v4.79h-11.13Z"/><path class="cls-1" d="M297.17,102.28h-11.68l-1.93,5.59h-6.17l10.54-29.36h6.85l10.54,29.36h-6.22l-1.93-5.59ZM295.58,97.58l-4.24-12.26-4.24,12.26h8.48Z"/><path class="cls-1" d="M315.15,103.2h9.66v4.66h-15.54v-29.32h5.88v24.65Z"/><path class="cls-1" d="M334.43,78.55v29.32h-5.88v-29.32h5.88Z"/><path class="cls-1" d="M365.3,107.87h-5.88l-13.31-20.12v20.12h-5.88v-29.36h5.88l13.31,20.16v-20.16h5.88v29.36Z"/><path class="cls-1" d="M391.5,87.37c-.67-1.23-1.6-2.17-2.77-2.81-1.18-.64-2.55-.97-4.12-.97-1.74,0-3.28.39-4.62,1.18-1.34.78-2.39,1.9-3.15,3.36-.76,1.46-1.13,3.14-1.13,5.04s.38,3.67,1.16,5.12c.77,1.46,1.84,2.58,3.21,3.36,1.37.78,2.97,1.18,4.79,1.18,2.24,0,4.07-.59,5.5-1.79,1.43-1.19,2.37-2.85,2.81-4.98h-10.08v-4.49h15.88v5.12c-.39,2.04-1.23,3.93-2.52,5.67-1.29,1.74-2.95,3.13-4.98,4.18-2.03,1.05-4.3,1.58-6.83,1.58-2.83,0-5.38-.64-7.67-1.91-2.28-1.27-4.07-3.04-5.38-5.31-1.3-2.27-1.95-4.84-1.95-7.73s.65-5.47,1.95-7.75c1.3-2.28,3.09-4.06,5.38-5.33,2.28-1.27,4.82-1.91,7.62-1.91,3.3,0,6.17.8,8.61,2.42,2.44,1.61,4.12,3.87,5.04,6.78h-6.76Z"/><path class="cls-1" d="M434.72,78.55v20.58c0,2.86-.83,5.08-2.48,6.66-1.65,1.58-3.86,2.37-6.64,2.37s-5.06-.81-6.78-2.44c-1.72-1.62-2.58-3.89-2.58-6.8h5.88c.03,1.26.33,2.24.9,2.94.57.7,1.41,1.05,2.5,1.05s1.88-.34,2.44-1.01c.56-.67.84-1.6.84-2.77v-20.58h5.92Z"/><path class="cls-1" d="M447.61,106.23c-2.3-1.29-4.12-3.07-5.46-5.36-1.34-2.28-2.02-4.86-2.02-7.75s.67-5.42,2.02-7.71c1.34-2.28,3.16-4.07,5.46-5.35,2.29-1.29,4.82-1.93,7.56-1.93s5.3.64,7.58,1.93,4.09,3.07,5.42,5.35c1.33,2.28,2,4.85,2,7.71s-.67,5.47-2,7.75c-1.33,2.28-3.14,4.07-5.44,5.36-2.3,1.29-4.82,1.93-7.56,1.93s-5.26-.64-7.56-1.93ZM459.84,101.71c1.34-.8,2.39-1.94,3.15-3.42.76-1.48,1.13-3.21,1.13-5.17s-.38-3.67-1.13-5.14c-.76-1.47-1.81-2.6-3.15-3.38s-2.9-1.18-4.66-1.18-3.33.39-4.68,1.18c-1.36.78-2.42,1.91-3.17,3.38s-1.13,3.19-1.13,5.14.38,3.68,1.13,5.17c.76,1.48,1.81,2.62,3.17,3.42,1.36.8,2.92,1.2,4.68,1.2s3.32-.4,4.66-1.2Z"/><path class="cls-1" d="M480.33,78.55v18.14c0,1.99.52,3.51,1.55,4.56,1.04,1.05,2.49,1.58,4.37,1.58s3.37-.52,4.41-1.58c1.04-1.05,1.55-2.57,1.55-4.56v-18.14h5.92v18.1c0,2.49-.54,4.6-1.62,6.32-1.08,1.72-2.52,3.02-4.33,3.88-1.81.87-3.82,1.3-6.03,1.3s-4.17-.43-5.94-1.3c-1.78-.87-3.19-2.16-4.22-3.88-1.04-1.72-1.55-3.83-1.55-6.32v-18.1h5.88Z"/><path class="cls-1" d="M518.93,107.87l-6.47-11.42h-2.77v11.42h-5.88v-29.32h11c2.27,0,4.2.4,5.8,1.2,1.6.8,2.79,1.88,3.59,3.23.8,1.36,1.2,2.88,1.2,4.56,0,1.93-.56,3.68-1.68,5.23s-2.79,2.62-5,3.21l7.01,11.89h-6.8ZM509.69,92.03h4.91c1.6,0,2.79-.38,3.57-1.15.78-.77,1.18-1.84,1.18-3.21s-.39-2.39-1.18-3.13c-.78-.74-1.97-1.11-3.57-1.11h-4.91v8.61Z"/><path class="cls-1" d="M555.81,107.87h-5.88l-13.31-20.12v20.12h-5.88v-29.36h5.88l13.31,20.16v-20.16h5.88v29.36Z"/><path class="cls-1" d="M567.48,83.3v7.35h9.87v4.66h-9.87v7.77h11.13v4.79h-17.01v-29.36h17.01v4.79h-11.13Z"/><path class="cls-1" d="M607.26,78.55l-9.91,19.11v10.21h-5.88v-10.21l-9.95-19.11h6.64l6.3,13.4,6.26-13.4h6.55Z"/><path class="cls-2" d="M8.77,65.42C3.38,61.53.46,55.83,0,48.31h23.13c.33,3.99,2.09,5.98,5.29,5.98,1.18,0,2.17-.28,2.99-.83.82-.55,1.23-1.42,1.23-2.6,0-1.63-.88-2.96-2.65-3.97-1.76-1.01-4.51-2.17-8.23-3.48-4.44-1.57-8.12-3.1-11.02-4.61-2.91-1.5-5.41-3.69-7.5-6.57C1.14,29.37.13,25.68.2,21.17c0-4.51,1.16-8.35,3.48-11.52,2.32-3.17,5.49-5.57,9.51-7.2C17.2.82,21.72,0,26.75,0c8.49,0,15.24,1.96,20.24,5.88s7.63,9.44,7.89,16.56h-23.42c-.07-1.96-.56-3.36-1.47-4.21-.92-.85-2.03-1.27-3.33-1.27-.92,0-1.67.31-2.25.93-.59.62-.88,1.49-.88,2.6,0,1.57.87,2.86,2.6,3.87,1.73,1.01,4.49,2.24,8.28,3.67,4.38,1.63,7.99,3.2,10.83,4.7,2.84,1.5,5.31,3.59,7.4,6.27,2.09,2.68,3.14,6.04,3.14,10.09,0,4.25-1.05,8.05-3.14,11.42-2.09,3.37-5.13,6-9.11,7.89-3.99,1.9-8.72,2.84-14.21,2.84-8.3,0-15.14-1.94-20.53-5.83Z"/><path class="cls-2" d="M108.09,60.07h-23.13l-3.43,10.49h-22.83L84.08,1.18h25.09l25.28,69.38h-22.93l-3.43-10.49ZM102.8,43.71l-6.27-19.31-6.27,19.31h12.54Z"/><path class="cls-2" d="M188.55,1.18v17.25h-27.24v9.6h19.6v16.37h-19.6v26.17h-21.76V1.18h49Z"/><path class="cls-2" d="M217.85,18.52v8.53h21.56v16.37h-21.56v9.8h24.5v17.35h-46.26V1.18h46.26v17.35h-24.5Z"/><path class="cls-2" d="M339.05,1.18v69.38h-21.76v-27.05h-20.68v27.05h-21.76V1.18h21.76v24.99h20.68V1.18h21.76Z"/><path class="cls-2" d="M364.87,66.64c-5.46-3.07-9.78-7.32-12.98-12.74-3.2-5.42-4.8-11.53-4.8-18.33s1.6-12.9,4.8-18.33c3.2-5.42,7.53-9.65,12.98-12.69s11.45-4.56,17.98-4.56,12.51,1.52,17.93,4.56,9.72,7.27,12.89,12.69c3.17,5.42,4.75,11.53,4.75,18.33s-1.58,12.9-4.75,18.33c-3.17,5.42-7.48,9.67-12.94,12.74-5.46,3.07-11.42,4.61-17.88,4.61s-12.53-1.53-17.98-4.61ZM392.85,46.79c2.35-2.78,3.53-6.52,3.53-11.22s-1.18-8.54-3.53-11.32c-2.35-2.78-5.68-4.17-10-4.17s-7.74,1.39-10.09,4.17c-2.35,2.78-3.53,6.55-3.53,11.32s1.18,8.44,3.53,11.22c2.35,2.78,5.72,4.17,10.09,4.17s7.64-1.39,10-4.17Z"/><path class="cls-2" d="M447.73,1.18v39.1c0,3.2.7,5.73,2.11,7.6,1.4,1.86,3.67,2.79,6.81,2.79s5.45-.93,6.96-2.79c1.5-1.86,2.25-4.39,2.25-7.6V1.18h21.66v39.1c0,6.6-1.37,12.24-4.12,16.91-2.74,4.67-6.5,8.18-11.27,10.54-4.77,2.35-10.09,3.53-15.97,3.53s-11.09-1.18-15.63-3.53c-4.54-2.35-8.08-5.85-10.63-10.49-2.55-4.64-3.82-10.29-3.82-16.95V1.18h21.66Z"/><path class="cls-2" d="M503.74,65.42c-5.39-3.89-8.31-9.59-8.77-17.1h23.13c.33,3.99,2.09,5.98,5.29,5.98,1.18,0,2.17-.28,2.99-.83.82-.55,1.22-1.42,1.22-2.6,0-1.63-.88-2.96-2.65-3.97-1.76-1.01-4.51-2.17-8.23-3.48-4.44-1.57-8.12-3.1-11.03-4.61-2.91-1.5-5.41-3.69-7.5-6.57s-3.1-6.57-3.04-11.07c0-4.51,1.16-8.35,3.48-11.52,2.32-3.17,5.49-5.57,9.51-7.2,4.02-1.63,8.54-2.45,13.57-2.45,8.49,0,15.24,1.96,20.24,5.88s7.63,9.44,7.89,16.56h-23.42c-.07-1.96-.56-3.36-1.47-4.21-.92-.85-2.03-1.27-3.33-1.27-.92,0-1.67.31-2.25.93-.59.62-.88,1.49-.88,2.6,0,1.57.87,2.86,2.6,3.87,1.73,1.01,4.49,2.24,8.28,3.67,4.38,1.63,7.99,3.2,10.83,4.7,2.84,1.5,5.31,3.59,7.4,6.27,2.09,2.68,3.14,6.04,3.14,10.09,0,4.25-1.05,8.05-3.14,11.42-2.09,3.37-5.13,6-9.11,7.89-3.99,1.9-8.72,2.84-14.21,2.84-8.3,0-15.14-1.94-20.53-5.83Z"/><path class="cls-2" d="M580.33,18.52v8.53h21.56v16.37h-21.56v9.8h24.5v17.35h-46.26V1.18h46.26v17.35h-24.5Z"/></g></svg>