<?xml version="1.0" encoding="UTF-8"?><svg id="Layer_2" xmlns="http://www.w3.org/2000/svg" viewBox="0 0 274.8 157.06"><defs><style>.cls-1,.cls-2,.cls-3,.cls-4,.cls-5,.cls-6,.cls-7{fill:#fff;}.cls-2{stroke:#fff;stroke-miterlimit:10;stroke-width:.25px;}.cls-2,.cls-3{fill-rule:evenodd;}.cls-4{letter-spacing:.24em;}.cls-4,.cls-5,.cls-6,.cls-7{font-size:14.77px;}.cls-4,.cls-7{font-family:Poppins-Light, Poppins;font-weight:300;}.cls-5{font-family:Poppins-Bold, Poppins;font-weight:700;}.cls-5,.cls-6{letter-spacing:.1em;}.cls-6{font-family:Poppins-Regular, Poppins;}.cls-7{letter-spacing:.24em;}</style></defs><g id="Capa_1"><text class="cls-4" transform="translate(116.35 76.05)"><tspan x="0" y="0">Tech Company</tspan></text><text class="cls-7" transform="translate(9.7 76.05)"><tspan x="0" y="0">Web</tspan></text><path class="cls-3" d="M86.2,27.73c-3.17,0-5.84,1.08-8,3.25s-3.25,4.83-3.25,8,1.08,5.84,3.25,8,4.83,3.25,8,3.25,5.78-1.09,7.97-3.29c2.19-2.19,3.28-4.84,3.28-7.97s-1.1-5.78-3.28-7.97c-2.19-2.19-4.85-3.28-7.97-3.28Z"/><path class="cls-3" d="M67.86,16.64v59.41h36.69V16.64h-36.69ZM86.2,21.05h15.09v.77l-.32.3h.32v.77l-4.19,3.91c-2.86-3.07-6.66-4.68-10.9-4.68h5.69c-1.76-.71-3.67-1.07-5.69-1.07ZM71.32,63.57c0-1.24,1.01-2.25,2.25-2.25s2.25,1.01,2.25,2.25-1.01,2.25-2.25,2.25-2.25-1.01-2.25-2.25ZM101.3,56.94c0,4.29-1.52,7.92-4.54,10.9-3.03,2.98-6.64,4.47-10.83,4.47-4.56,0-8.34-1.65-11.33-4.95.16.04.32.06.49.06,1.24,0,2.25-1.01,2.25-2.25,0-.16-.02-.31-.05-.46,2.17,2.49,5.05,3.75,8.64,3.75,3.17,0,5.88-1.08,8.14-3.25,2.26-2.17,3.39-4.93,3.39-8.28v-7.9c-3.03,3.35-6.78,5.03-11.25,5.03-4.1,0-7.64-1.49-10.62-4.47-2.98-2.98-4.47-6.52-4.47-10.62s1.49-7.76,4.47-10.69c2.98-2.93,6.52-4.4,10.62-4.4s7.87,1.56,10.9,4.68l4.19-3.91v32.29Z"/><path class="cls-3" d="M15.2,35.55h17.05v-18.49c0-1.65-.41-3.11-1.23-4.38-.82-1.28-1.87-2.27-3.18-2.95-1.31-.68-2.68-1.03-4.13-1.03-2.51,0-4.57.85-6.15,2.54-1.58,1.69-2.37,3.63-2.37,5.82v18.49h0ZM15.2,39.31v13.15h-3.85v-13.15h-4.96l2.3-3.76h2.66v-18.49c0-2.15.56-4.15,1.68-6.03,1.12-1.88,2.63-3.36,4.54-4.46,1.91-1.1,3.96-1.64,6.15-1.64s4.24.54,6.15,1.64c1.9,1.1,3.42,2.58,4.54,4.46,1.12,1.88,1.68,3.88,1.68,6.03v35.4h-3.84v-13.15H15.2Z"/><path class="cls-3" d="M63.36,23.88v28.58l-3.27-2.66c-2.19,2.28-4.89,3.42-8.11,3.42s-5.92-1.08-8.11-3.28c-2.19-2.19-3.29-4.9-3.29-8.11v-17.96h3.85v17.96c0,2.09.75,3.88,2.27,5.34,1.52,1.47,3.28,2.2,5.28,2.2,2.19,0,3.99-.75,5.41-2.27,1.43-1.52,2.14-3.27,2.14-5.28v-17.96h3.84Z"/><path class="cls-3" d="M131.82,23.88v28.58l-3.27-2.66c-2.19,2.28-4.89,3.42-8.11,3.42s-5.92-1.08-8.11-3.28c-2.19-2.19-3.29-4.9-3.29-8.11v-17.96h3.85v17.96c0,2.09.75,3.88,2.27,5.34,1.52,1.47,3.28,2.2,5.28,2.2,2.19,0,3.99-.75,5.41-2.27,1.43-1.52,2.14-3.27,2.14-5.28v-17.96h3.84Z"/><path class="cls-3" d="M202.56,48.62c-3.02,3.12-6.66,4.68-10.9,4.68s-7.65-1.49-10.62-4.47c-2.98-2.99-4.47-6.53-4.47-10.62s1.49-7.76,4.47-10.7c2.98-2.93,6.52-4.4,10.62-4.4s7.88,1.56,10.9,4.69l4.19-3.92v28.58l-4.19-3.84h0ZM191.66,26.96c-3.16,0-5.83,1.08-8,3.24-2.17,2.17-3.25,4.83-3.25,8.01s1.08,5.83,3.25,8c2.17,2.17,4.84,3.24,8,3.24s5.78-1.1,7.97-3.27c2.19-2.19,3.29-4.85,3.29-7.97s-1.1-5.79-3.29-7.97c-2.19-2.19-4.85-3.29-7.97-3.29Z"/><path class="cls-2" d="M272.31,15.14V.12H108.72v11.7h-45.04V.12H2.05v14.3c-1.09.16-1.93,1.08-1.93,2.21,0,1.24,1.01,2.25,2.25,2.25s2.25-1.01,2.25-2.25c0-1.13-.84-2.06-1.93-2.21V.77h60.35v11.7h46.32V.77h162.31v14.38h-2.27l2.59,4.49,2.59-4.49h-2.27Z"/><path class="cls-2" d="M271.99,54.71c-1.13,0-2.06.84-2.21,1.93H108.72v23.59h-45.04v-23.59H4.06l-3.94-2.27v5.19l3.94-2.27h58.98v23.59h46.32v-23.59h160.41c.16,1.09,1.08,1.93,2.21,1.93,1.24,0,2.25-1.01,2.25-2.25s-1.01-2.25-2.25-2.25Z"/><path class="cls-1" d="M85.99,23.89c.07,0,.14,0,.21,0h-.21Z"/><path class="cls-3" d="M227.62,26.89c-3.12,0-5.78,1.1-7.97,3.29-2.18,2.18-3.27,4.84-3.27,7.97s1.1,5.78,3.27,7.97c2.19,2.18,4.85,3.27,7.97,3.27s5.84-1.07,8.01-3.24c2.16-2.17,3.24-4.84,3.24-8s-1.08-5.84-3.24-8.01c-2.17-2.16-4.84-3.24-8.01-3.24h0ZM216.38,10.33v17.81c3.02-3.35,6.77-5.03,11.24-5.03,4.19,0,7.76,1.47,10.7,4.4,2.93,2.94,4.4,6.51,4.4,10.7s-1.47,7.63-4.4,10.62c-2.94,2.98-6.51,4.47-10.7,4.47s-7.87-1.56-10.9-4.68l-4.19,3.84V13.93"/><polygon class="cls-3" points="161.57 48.62 161.57 9.43 157.72 9.43 153.53 13.35 157.72 13.35 157.72 52.46 174.64 52.46 174.64 48.62 161.57 48.62"/><path class="cls-1" d="M139.68,46.39h-3.35v1.81h0c.84,1.48,1.96,2.67,3.35,3.53,1.39.86,2.93,1.29,4.61,1.29s3.19-.4,4.54-1.19c1.35-.79,2.42-1.86,3.22-3.21.79-1.35,1.18-2.87,1.18-4.55,0-2.05-.59-3.86-1.78-5.44-1.18-1.59-2.73-2.63-4.65-3.15l-3.35-.97c-1.81-.52-2.72-1.7-2.72-3.56,0-.98.34-1.85,1.04-2.59.71-.74,1.59-1.12,2.66-1.12,1.73,0,2.87.74,3.43,2.23l3.5-1.47c-.56-1.39-1.48-2.51-2.77-3.35-1.28-.83-2.67-1.25-4.16-1.25-2.09,0-3.87.73-5.34,2.2-1.46,1.46-2.2,3.24-2.2,5.34,0,1.67.52,3.18,1.54,4.5,1.03,1.33,2.38,2.25,4.06,2.77l3.35.97c1.02.28,1.87.87,2.54,1.78.68.91,1.02,1.95,1.02,3.11,0,1.45-.49,2.66-1.47,3.64-.97.97-2.19,1.46-3.63,1.46-2.15,0-3.68-.93-4.61-2.79"/><path class="cls-1" d="M249.45,46.39h-3.35v1.81h0c.84,1.48,1.96,2.67,3.35,3.53,1.39.86,2.93,1.29,4.61,1.29s3.19-.4,4.54-1.19c1.35-.79,2.42-1.86,3.22-3.21.79-1.35,1.18-2.87,1.18-4.55,0-2.05-.59-3.86-1.78-5.44-1.18-1.59-2.73-2.63-4.65-3.15l-3.35-.97c-1.81-.52-2.72-1.7-2.72-3.56,0-.98.34-1.85,1.04-2.59.71-.74,1.59-1.12,2.66-1.12,1.73,0,2.87.74,3.43,2.23l3.5-1.47c-.56-1.39-1.48-2.51-2.77-3.35-1.28-.83-2.67-1.25-4.16-1.25-2.09,0-3.87.73-5.34,2.2-1.46,1.46-2.2,3.24-2.2,5.34,0,1.67.52,3.18,1.54,4.5,1.03,1.33,2.38,2.25,4.06,2.77l3.35.97c1.02.28,1.87.87,2.54,1.78.68.91,1.02,1.95,1.02,3.11,0,1.45-.49,2.66-1.47,3.64-.97.97-2.19,1.46-3.63,1.46-2.15,0-3.68-.93-4.61-2.79"/><text class="cls-5" transform="translate(44.79 113.02)"><tspan x="0" y="0">www.auguslabs.com</tspan></text><text class="cls-6" transform="translate(30.83 148.61)"><tspan x="0" y="0">explore@auguslabs.com</tspan></text></g></svg>