<svg xmlns="http://www.w3.org/2000/svg" id="a" data-name="Layer 1" viewBox="16.01 16.2 143.99 27.95">
  <defs>
    <style>
      .b {
        fill: #035c67;
        stroke-width: 0px;
      }
    </style>
  </defs>
  <path class="b" d="m158.85,16.2c.64,0,1.15.51,1.15,1.14s-.52,1.14-1.15,1.14-1.15-.51-1.15-1.14.51-1.14,1.15-1.14Zm0,2.11c.54,0,.99-.44.99-.98s-.45-.98-.99-.98-.99.44-.99.98.45.98.99.98Zm-.17-.8h-.08v.52h-.3v-1.39h.61c.26,0,.44.19.44.44s-.18.41-.34.41c.15.18.29.36.44.54h-.35l-.42-.52Zm-.08-.63v.4h.29c.1,0,.17-.1.17-.2s-.08-.2-.17-.2h-.29Zm-2.98-.45h-3.79v6.55h-5.4v-6.55h-3.84v16.35h3.84v-6.49h5.4v6.49h3.79v-6.49h4.38v-3.31h-4.38v-6.55Zm-27.01,3.27h4v13.08h3.79v-13.08h3.95v-3.27h-11.75v3.27Zm-7.45,3.99h-3.17v-3.99h3.17c.77,0,1.66.81,1.66,2s-.9,2-1.66,2Zm1.75,2.93c2.62-.71,3.71-3.02,3.71-4.99,0-2.94-2.11-5.2-5.26-5.2h-7.21v16.35h3.84v-5.94h.72l4.74,5.94h4.34l-4.88-6.16Zm-18.45,6.38c5.32,0,7.11-4.35,7.11-8.4s-1.79-8.4-7.11-8.4c-5.32,0-7.11,4.37-7.11,8.4s1.79,8.4,7.11,8.4Zm0-3.2c-2.12,0-3.18-1.73-3.18-5.2s1.06-5.2,3.18-5.2c2.12,0,3.18,1.73,3.18,5.2s-1.06,5.2-3.18,5.2Zm-19.38-13.38h-3.69v16.35h3.84v-9.61l6.03,9.61h3.75v-16.35h-3.84v9.61l-6.09-9.61Zm-12.42,7.26h-3.17v-3.99h3.17c.77,0,1.66.81,1.66,2s-.9,2-1.66,2Zm1.75,2.93c2.62-.71,3.71-3.02,3.71-4.99,0-2.94-2.11-5.2-5.26-5.2h-7.21v16.35h3.84v-5.94h.72l4.74,5.94h4.34l-4.88-6.16Zm-23.5,6.16h11.97v-3.32h-8.13v-3.4h6.88v-3.21h-6.88v-3.15h8.13v-3.27h-11.97v16.35Zm-9.65-5.65l-3.45-10.7h-4.03l5.7,16.35h3.53l5.81-16.35h-4.09l-3.47,10.7Zm-9.05,2.33v3.32h-11.82v-6.49h-4.38v-3.31h4.38v-6.55h11.66v3.27h-7.75v3.28h4.38v3.31h-4.38v3.17h7.91Zm52.71,14.58v-2.26h-2.28v2.26h-1.24v-5.63h1.24v2.23h2.28v-2.23h1.24v5.63h-1.24Zm2.51,0v-5.63h4.24v1.1h-3.02v1.14h2.65v1.1h-2.65v1.18h3.06v1.1h-4.28Zm9.52,0l-.51-1.26h-2.38l-.51,1.26h-1.26l2.41-5.67h1.14l2.41,5.67h-1.29Zm-1.71-4.18l-.75,1.83h1.5l-.75-1.83Zm3.69,4.18v-5.63h1.24v4.51h2.81v1.12h-4.05Zm6.66-4.49v4.49h-1.24v-4.49h-1.71v-1.14h4.67v1.14h-1.71Zm5.97,4.49v-2.26h-2.28v2.26h-1.24v-5.63h1.24v2.23h2.28v-2.23h1.24v5.63h-1.24Zm6.7.08c-.84,0-1.7-.28-2.39-.9l.73-.88c.9.73,1.55.68,1.68.68.76,0,.81-.39.81-.54,0-.18.07-.42-1.14-.72-.28-.07-.54-.15-.77-.23-.81-.3-1.1-.79-1.1-1.5,0-1.67,1.8-1.71,1.96-1.71.32,0,1.21.02,2.09.72l-.64.93c-.53-.36-1-.55-1.46-.55-.66,0-.72.37-.72.5,0,.15-.03.38.62.58.55.17.89.22,1.36.42.77.32,1.03.8,1.03,1.44,0,.8-.5,1.75-2.06,1.75Zm3.03-.08v-5.63h4.24v1.1h-3.02v1.14h2.65v1.1h-2.65v1.18h3.06v1.1h-4.28Zm8.76,0l-1.21-1.8h-.97v1.8h-1.24v-5.63h2.57c1.35,0,2.12.69,2.12,1.86v.02c0,.17.04,1.28-1.21,1.75l1.38,2.01h-1.45Zm.02-3.71c0-.73-.66-.8-.97-.8h-1.23v1.62h1.25c.94,0,.95-.69.95-.8v-.02Zm4.95,3.75h-1.09l-2.28-5.67h1.37l1.47,3.96,1.47-3.96h1.34l-2.28,5.67Zm2.99-.04v-5.63h1.24v5.63h-1.24Zm5.15.1c-2.36,0-2.89-2.03-2.89-2.9s.56-2.92,2.94-2.92c.75,0,1.52.17,2.22.87l-.79.91c-.57-.51-1-.63-1.44-.63-1.52,0-1.63,1.58-1.63,1.76s.12,1.78,1.63,1.78c.26,0,.75.02,1.48-.66l.79.8c-.63.67-1.27,1.01-2.31,1.01Zm3.1-.1v-5.63h4.24v1.1h-3.02v1.14h2.65v1.1h-2.65v1.18h3.06v1.1h-4.28Zm7.3.08c-.84,0-1.7-.28-2.39-.9l.73-.88c.9.73,1.55.68,1.68.68.76,0,.81-.39.81-.54,0-.18.07-.42-1.14-.72-.28-.07-.54-.15-.77-.23-.81-.3-1.1-.79-1.1-1.5,0-1.67,1.8-1.71,1.96-1.71.32,0,1.21.02,2.09.72l-.64.93c-.53-.36-1-.55-1.46-.55-.66,0-.72.37-.72.5,0,.15-.03.38.62.58.55.17.89.22,1.36.42.77.32,1.03.8,1.03,1.44,0,.8-.5,1.75-2.06,1.75Z"/>
</svg>