<?xml version="1.0" encoding="UTF-8"?><svg id="Layer_2" xmlns="http://www.w3.org/2000/svg" viewBox="0 0 66.75 133.06"><defs><style>.cls-1{fill:#fff;stroke:#07549b;stroke-miterlimit:10;stroke-width:.75px;}.cls-2{fill:none;}.cls-3{fill:#07549b;}</style></defs><g id="Layer_1-2"><path class="cls-2" d="M47.05,92.88c.24-.65.2-1.33-.12-2.05-.2-.45-.48-.82-.83-1.09-.35-.27-.75-.42-1.21-.45l1.02-.45-.34-.77-5.99,2.67.34.77,3.27-1.46c.71-.32,1.32-.38,1.84-.2.52.18.91.56,1.16,1.14.25.56.28,1.08.08,1.56-.2.48-.62.86-1.27,1.15l-3.42,1.52.34.76,3.51-1.56c.84-.37,1.38-.89,1.62-1.54Z"/><path class="cls-2" d="M44.75,97.95l3.72-1.65.73,1.64.65-.29-.73-1.64,1.5-.67-.35-.78-1.5.67-.37-.83-.65.29.37.83-3.72,1.66c-.58.26-.93.57-1.07.95-.13.38-.08.83.16,1.38l.37.82.66-.29-.31-.7c-.16-.35-.2-.63-.12-.83.08-.2.3-.38.66-.54Z"/><path class="cls-2" d="M52.57,103.79l-1.32.59c.33-.37.53-.81.61-1.34.08-.53,0-1.08-.26-1.65-.24-.55-.59-.98-1.04-1.31s-.96-.5-1.53-.54c-.57-.04-1.17.08-1.78.35-.61.27-1.1.64-1.46,1.09-.36.45-.57.96-.63,1.5-.06.55.03,1.09.27,1.63.25.57.61,1,1.06,1.3.45.29.92.44,1.42.45l-1.33.59.34.77,5.98-2.67-.34-.77ZM50.72,104.26c-.28.36-.66.65-1.14.86-.48.21-.95.31-1.4.27-.45-.04-.85-.18-1.2-.43-.35-.25-.61-.58-.8-.99-.19-.42-.26-.85-.22-1.27.04-.42.21-.81.49-1.17.28-.36.67-.65,1.16-.86.5-.22.97-.32,1.42-.28.45.03.84.17,1.18.43.34.25.6.59.79,1.01.18.41.25.83.2,1.26-.05.43-.21.82-.48,1.18Z"/><path class="cls-2" d="M37.78,81.42l-.37-.82c-.48.09-.92.02-1.32-.21-.4-.23-.71-.6-.93-1.1-.18-.4-.25-.8-.21-1.21.04-.4.2-.78.48-1.13.28-.35.69-.64,1.21-.88.53-.23,1.01-.34,1.46-.31.45.03.83.16,1.16.4.33.24.58.56.76.96.22.5.29.98.2,1.43-.09.45-.33.82-.72,1.12l.37.82c.57-.42.93-.95,1.08-1.59.15-.64.06-1.33-.26-2.07-.25-.56-.6-1.01-1.05-1.33s-.96-.51-1.53-.55c-.58-.04-1.17.08-1.79.35-.62.28-1.11.64-1.46,1.1-.35.46-.56.96-.62,1.51s.04,1.11.29,1.67c.33.73.78,1.25,1.37,1.57.59.32,1.22.41,1.9.27Z"/><path class="cls-2" d="M41.96,88c.62-.28,1.11-.65,1.46-1.11.35-.47.55-.98.6-1.55.05-.57-.05-1.13-.3-1.7-.25-.56-.6-1.01-1.06-1.36-.45-.34-.97-.54-1.55-.6-.58-.06-1.18.05-1.8.33s-1.11.65-1.45,1.11c-.35.46-.55.98-.6,1.54-.05.56.05,1.12.3,1.69.25.56.6,1.02,1.06,1.37.46.35.98.55,1.56.6.58.06,1.18-.05,1.8-.33ZM38.96,87.04c-.33-.26-.58-.58-.76-.98-.18-.4-.25-.8-.22-1.21.03-.41.18-.8.45-1.16.27-.36.67-.66,1.2-.89s1.01-.33,1.47-.29.84.19,1.17.44c.33.26.58.58.76.98s.25.8.22,1.22c-.03.42-.18.81-.45,1.17-.27.37-.67.67-1.2.9-.53.23-1.02.33-1.47.28-.45-.05-.85-.2-1.17-.46Z"/><path class="cls-2" d="M58.29,112.58l-1.5.67-.37-.83-.65.29.37.83-3.72,1.66c-.58.26-.93.57-1.07.95-.13.38-.08.83.16,1.37l.37.82.66-.29-.31-.7c-.16-.35-.2-.63-.12-.83.08-.2.3-.38.66-.54l3.72-1.66.73,1.64.65-.29-.73-1.64,1.5-.67-.35-.78Z"/><path class="cls-2" d="M52.03,113.41l-.37-.82c-.48.09-.92.02-1.32-.21-.4-.23-.71-.6-.93-1.1-.18-.4-.25-.8-.21-1.21s.2-.78.48-1.13c.28-.35.69-.64,1.21-.88.53-.23,1.01-.34,1.46-.31.44.03.83.16,1.16.4.33.24.58.56.76.96.22.5.29.98.2,1.43-.09.45-.33.82-.72,1.11l.37.82c.57-.42.93-.95,1.08-1.59.15-.64.06-1.33-.26-2.07-.25-.56-.6-1.01-1.05-1.33s-.96-.51-1.53-.55-1.17.08-1.79.35c-.62.28-1.11.64-1.46,1.1-.35.46-.56.96-.62,1.51-.06.55.04,1.11.29,1.67.33.73.78,1.25,1.37,1.57s1.22.41,1.9.27Z"/><path class="cls-3" d="M42.8,86.31c.27-.37.42-.76.45-1.17.03-.42-.04-.82-.22-1.22s-.43-.72-.76-.98c-.33-.26-.72-.4-1.17-.44s-.94.06-1.47.29-.93.53-1.2.89c-.27.36-.42.75-.45,1.16-.03.41.04.82.22,1.21.18.39.43.72.76.98.33.26.72.41,1.17.46.46.05.95-.05,1.47-.28.53-.23.92-.54,1.2-.9Z"/><path class="cls-3" d="M50.21,100.81c-.34-.25-.73-.39-1.18-.43-.45-.03-.92.06-1.42.28-.49.22-.88.51-1.16.86-.28.36-.45.75-.49,1.17-.04.42.03.85.22,1.27.18.41.45.74.8.99.35.25.75.39,1.2.43.45.03.92-.06,1.4-.27.48-.21.86-.5,1.14-.86.28-.36.44-.75.48-1.18.05-.43-.02-.85-.2-1.26-.19-.42-.45-.76-.79-1.01Z"/><path class="cls-3" d="M49.04,59.56C32.76,23.02,12.56-3.48,3.91.37c-8.65,3.85-2.47,36.6,13.81,73.14,16.18,36.33,36.24,62.72,44.97,59.24l-2.33-4.2.66-.36,2.34,4.22c7.87-4.93,1.62-37.06-14.32-72.84ZM26.69,62.31c0-2.65,2.15-4.8,4.8-4.8s4.8,2.15,4.8,4.8-2.15,4.8-4.8,4.8-4.8-2.15-4.8-4.8ZM34.51,79.57c-.25-.56-.35-1.12-.29-1.67s.26-1.05.62-1.51c.35-.46.84-.82,1.46-1.1.62-.28,1.22-.39,1.79-.35.57.04,1.09.23,1.53.55s.8.77,1.05,1.33c.33.74.42,1.43.26,2.07-.15.64-.51,1.17-1.08,1.59l-.37-.82c.39-.29.62-.67.72-1.12.09-.45.03-.93-.2-1.43-.18-.4-.43-.72-.76-.96-.33-.24-.71-.37-1.16-.4-.44-.03-.93.08-1.46.31-.53.23-.93.53-1.21.88-.28.35-.44.73-.48,1.13-.04.4.03.81.21,1.21.22.5.54.87.93,1.1.4.23.84.3,1.32.21l.37.82c-.68.13-1.31.04-1.9-.27-.59-.32-1.04-.84-1.37-1.57ZM37.53,86.36c-.25-.56-.35-1.12-.3-1.69.05-.56.25-1.08.6-1.54.35-.47.83-.84,1.45-1.11s1.22-.39,1.8-.33c.58.06,1.1.26,1.55.6.45.34.81.79,1.06,1.36.25.56.35,1.13.3,1.7-.05.57-.25,1.09-.6,1.55-.35.47-.83.84-1.46,1.11-.61.27-1.21.38-1.8.33-.58-.05-1.11-.26-1.56-.6-.46-.35-.81-.8-1.06-1.37ZM41.59,95.22l3.42-1.52c.65-.29,1.08-.67,1.27-1.15.2-.48.17-1-.08-1.56-.26-.58-.64-.96-1.16-1.14-.52-.18-1.13-.11-1.84.2l-3.27,1.46-.34-.77,5.99-2.67.34.77-1.02.45c.45.03.85.18,1.21.45.35.27.63.63.83,1.09.32.72.36,1.4.12,2.05-.24.65-.78,1.16-1.62,1.54l-3.51,1.56-.34-.76ZM44.2,99.32l.31.7-.66.29-.37-.82c-.24-.54-.29-1-.16-1.38.14-.38.49-.69,1.07-.95l3.72-1.66-.37-.83.65-.29.37.83,1.5-.67.35.78-1.5.67.73,1.64-.65.29-.73-1.64-3.72,1.65c-.37.16-.59.34-.66.54-.08.2-.04.48.12.83ZM46.59,106.46l1.33-.59c-.49,0-.97-.16-1.42-.45-.45-.29-.8-.73-1.06-1.3-.24-.54-.33-1.09-.27-1.63.06-.55.27-1.05.63-1.5.36-.45.84-.82,1.46-1.09.61-.27,1.21-.39,1.78-.35.57.04,1.08.22,1.53.54s.79.76,1.04,1.31c.25.57.34,1.12.26,1.65-.08.53-.28.98-.61,1.34l1.32-.59.34.77-5.98,2.67-.34-.77ZM50.13,113.14c-.59-.32-1.04-.84-1.37-1.57-.25-.56-.35-1.12-.29-1.67.06-.55.26-1.05.62-1.51.35-.46.84-.82,1.46-1.1.62-.28,1.22-.39,1.79-.35s1.09.23,1.53.55.8.77,1.05,1.33c.33.74.42,1.43.26,2.07-.15.64-.51,1.17-1.08,1.59l-.37-.82c.39-.29.62-.67.72-1.11.09-.45.03-.93-.2-1.43-.18-.4-.43-.72-.76-.96-.33-.24-.71-.37-1.16-.4-.44-.02-.93.08-1.46.31-.53.23-.93.53-1.21.88-.28.35-.44.72-.48,1.13s.03.81.21,1.21c.22.5.54.87.93,1.1.4.23.84.3,1.32.21l.37.82c-.68.13-1.31.04-1.9-.27ZM57.87,115.67l-.65.29-.73-1.64-3.72,1.66c-.37.16-.59.34-.66.54-.08.2-.04.48.12.83l.31.7-.66.29-.37-.82c-.24-.54-.29-1-.16-1.37.14-.38.49-.69,1.07-.95l3.72-1.66-.37-.83.65-.29.37.83,1.5-.67.35.78-1.5.67.73,1.64Z"/><path class="cls-1" d="M36.29,62.31c0-2.65-2.15-4.8-4.8-4.8s-4.8,2.15-4.8,4.8,2.15,4.8,4.8,4.8,4.8-2.15,4.8-4.8ZM33.04,64.67h-.44v-2c0-.38-.1-.67-.28-.87-.19-.2-.45-.3-.78-.3s-.61.11-.81.32c-.2.21-.3.53-.3.94v1.91h-.45v-4.74h.45v1.84c.11-.21.27-.37.49-.49.22-.12.46-.17.73-.17s.5.06.71.17c.21.11.38.28.5.51.12.23.18.51.18.84v2.05Z"/><path class="cls-3" d="M32.36,61.28c-.21-.11-.45-.17-.71-.17s-.51.06-.73.17c-.22.12-.38.28-.49.49v-1.84h-.45v4.74h.45v-1.91c0-.41.1-.73.3-.94.2-.21.47-.32.81-.32s.59.1.78.3c.19.2.28.49.28.87v2h.44v-2.05c0-.33-.06-.61-.18-.84-.12-.23-.29-.4-.5-.51Z"/></g></svg>