<?xml version="1.0" encoding="UTF-8"?><svg id="Layer_2" xmlns="http://www.w3.org/2000/svg" viewBox="0 0 70.6 131.07"><defs><style>.cls-1{fill:#fff;stroke:#07549b;stroke-miterlimit:10;stroke-width:.75px;}.cls-2{fill:none;}.cls-3{fill:#07549b;}</style></defs><g id="Layer_1-2"><path class="cls-2" d="M53.02,29.22c-.61-.3-1.21-.43-1.79-.4-.58.03-1.11.21-1.57.54-.47.33-.84.77-1.11,1.32-.27.55-.39,1.11-.36,1.68.03.57.21,1.09.54,1.57.33.48.8.87,1.41,1.17s1.21.43,1.79.4c.58-.03,1.1-.21,1.57-.53.46-.32.83-.76,1.1-1.31.27-.55.39-1.12.36-1.69-.03-.57-.21-1.1-.54-1.59-.33-.48-.8-.87-1.41-1.17ZM53.95,33.35c-.19.39-.45.7-.79.94-.33.24-.73.37-1.18.4-.45.02-.94-.09-1.46-.34-.52-.25-.91-.56-1.17-.94-.26-.37-.4-.77-.41-1.18-.02-.42.07-.82.26-1.21.19-.39.45-.71.79-.95.34-.25.73-.38,1.19-.41s.94.08,1.46.34c.52.25.9.57,1.16.95.26.38.39.78.41,1.19.01.42-.07.82-.26,1.21Z"/><path class="cls-2" d="M55.54,17.98c-.65.22-1.14.68-1.48,1.37-.24.49-.33.99-.27,1.49.06.51.29.95.68,1.34-.56-.06-1.05.04-1.49.31-.43.27-.77.65-1.02,1.16-.21.42-.3.86-.28,1.29.02.44.17.84.45,1.21l-1.01-.49-.37.75,5.89,2.87.37-.75-3.19-1.56c-.7-.34-1.15-.77-1.35-1.28-.21-.51-.17-1.04.1-1.59.26-.54.64-.88,1.13-1.03.49-.14,1.05-.06,1.69.25l3.37,1.64.36-.74-3.19-1.56c-.7-.34-1.15-.77-1.35-1.27-.21-.51-.17-1.04.1-1.6.26-.53.63-.87,1.12-1.01.49-.14,1.05-.06,1.69.25l3.37,1.64.36-.74-3.45-1.68c-.83-.4-1.56-.49-2.21-.27Z"/><path class="cls-2" d="M47.44,35.81c-.48.02-.91.16-1.27.42-.36.26-.65.62-.87,1.07-.22.45-.32.91-.31,1.37.02.46.16.87.42,1.23l-3.1-1.51-.37.75,7.98,3.89.37-.75-3.21-1.57c-.7-.34-1.14-.77-1.34-1.28-.2-.51-.15-1.05.12-1.62.27-.55.65-.91,1.15-1.06.49-.16,1.06-.08,1.7.24l3.37,1.64.36-.74-3.45-1.68c-.55-.27-1.07-.4-1.56-.38Z"/><path class="cls-2" d="M62.71,12.11l-.39.8c.35.3.56.68.64,1.13s0,.92-.25,1.41c-.18.37-.43.68-.75.92-.32.24-.68.38-1.09.42-.41.04-.84-.04-1.3-.23l2.38-4.89c-.13-.08-.32-.19-.58-.31-.5-.25-1.02-.36-1.54-.33-.52.02-1.01.19-1.46.49-.45.3-.81.73-1.08,1.29s-.4,1.12-.37,1.68c.03.56.22,1.07.56,1.54.34.47.82.85,1.43,1.15s1.21.43,1.78.41c.58-.03,1.1-.2,1.56-.51.46-.32.83-.75,1.1-1.31.35-.71.45-1.39.32-2.04-.13-.65-.45-1.18-.96-1.61ZM57.75,14.84c-.17-.57-.11-1.14.16-1.7.18-.37.43-.68.74-.92.31-.24.67-.38,1.07-.41s.82.06,1.25.28l-2.02,4.14c-.63-.36-1.03-.83-1.2-1.4Z"/><path class="cls-3" d="M52.64,30c-.52-.25-1-.36-1.46-.34s-.85.16-1.19.41c-.34.24-.6.56-.79.95-.19.39-.28.79-.26,1.21.01.42.15.81.41,1.18.26.37.65.68,1.17.94.52.25,1,.37,1.46.34.45-.02.85-.16,1.18-.4.34-.24.6-.56.79-.94.19-.39.28-.79.26-1.21-.02-.42-.15-.81-.41-1.19-.26-.38-.64-.7-1.16-.95Z"/><path class="cls-3" d="M59.72,11.82c-.4.03-.75.17-1.07.41-.31.24-.56.55-.74.92-.27.56-.33,1.13-.16,1.7.17.57.57,1.04,1.2,1.4l2.02-4.14c-.43-.22-.85-.32-1.25-.28Z"/><path class="cls-3" d="M42.81,52.95c-.21-.11-.45-.17-.71-.17s-.51.06-.73.17c-.22.12-.38.28-.49.49v-1.84h-.45v4.74h.45v-1.91c0-.41.1-.73.3-.94.2-.21.47-.32.81-.32s.59.1.78.3c.19.2.28.49.28.87v2h.44v-2.05c0-.33-.06-.61-.18-.84-.12-.23-.29-.4-.5-.51Z"/><path class="cls-3" d="M67.05.44c-8.51-4.15-29.62,21.63-47.16,57.58C2.36,93.98-4.96,126.49,3.55,130.64c8.51,4.15,29.62-21.63,47.16-57.58C68.24,37.1,75.56,4.59,67.05.44ZM41.95,58.77c-2.65,0-4.8-2.15-4.8-4.8s2.15-4.8,4.8-4.8,4.8,2.15,4.8,4.8-2.15,4.8-4.8,4.8ZM52.08,38.62l-3.37-1.64c-.64-.31-1.21-.39-1.7-.24-.49.16-.88.51-1.15,1.06-.28.57-.32,1.11-.12,1.62.19.51.64.94,1.34,1.28l3.21,1.57-.37.75-7.98-3.89.37-.75,3.1,1.51c-.26-.36-.4-.77-.42-1.23-.02-.46.08-.91.31-1.37.22-.45.51-.8.87-1.07.36-.26.78-.41,1.27-.42.48-.02,1,.11,1.56.38l3.45,1.68-.36.74ZM54.61,33.67c-.27.55-.64.99-1.1,1.31-.46.32-.99.5-1.57.53-.58.03-1.18-.1-1.79-.4s-1.08-.69-1.41-1.17c-.33-.48-.51-1.01-.54-1.57-.03-.57.09-1.13.36-1.68.27-.55.64-1,1.11-1.32.47-.33.99-.51,1.57-.54.58-.03,1.18.1,1.79.4.6.29,1.07.68,1.41,1.17.33.48.51,1.01.54,1.59.03.57-.09,1.14-.36,1.69ZM60.84,20.67l-3.37-1.64c-.64-.31-1.2-.4-1.69-.25-.49.15-.86.48-1.12,1.01-.27.55-.3,1.09-.1,1.6.21.51.66.93,1.35,1.27l3.19,1.56-.36.74-3.37-1.64c-.64-.31-1.2-.4-1.69-.25-.49.14-.86.49-1.13,1.03-.27.55-.3,1.09-.1,1.59.21.51.66.94,1.35,1.28l3.19,1.56-.37.75-5.89-2.87.37-.75,1.01.49c-.28-.37-.42-.77-.45-1.21-.02-.44.07-.87.28-1.29.25-.51.59-.9,1.02-1.16.43-.27.93-.37,1.49-.31-.39-.39-.62-.83-.68-1.34-.06-.51.03-1,.27-1.49.34-.69.83-1.15,1.48-1.37.65-.22,1.38-.13,2.21.27l3.45,1.68-.36.74ZM63.34,15.75c-.27.55-.64.99-1.1,1.31-.46.32-.98.49-1.56.51-.58.03-1.17-.11-1.78-.41s-1.09-.68-1.43-1.15c-.34-.47-.53-.98-.56-1.54-.03-.56.09-1.12.37-1.68s.63-.99,1.08-1.29c.45-.3.94-.46,1.46-.49.52-.03,1.04.08,1.54.33.26.13.45.23.58.31l-2.38,4.89c.46.2.89.27,1.3.23.41-.04.78-.18,1.09-.42.31-.24.56-.54.75-.92.24-.49.32-.96.25-1.41s-.29-.83-.64-1.13l.39-.8c.5.42.82.96.96,1.61.13.65.03,1.33-.32,2.04Z"/><path class="cls-1" d="M41.95,49.17c-2.65,0-4.8,2.15-4.8,4.8s2.15,4.8,4.8,4.8,4.8-2.15,4.8-4.8-2.15-4.8-4.8-4.8ZM43.5,56.34h-.44v-2c0-.38-.1-.67-.28-.87-.19-.2-.45-.3-.78-.3s-.61.11-.81.32c-.2.21-.3.53-.3.94v1.91h-.45v-4.74h.45v1.84c.11-.21.27-.37.49-.49.22-.12.46-.17.73-.17s.5.06.71.17c.21.11.38.28.5.51.12.23.18.51.18.84v2.05Z"/></g></svg>