<?xml version="1.0" encoding="UTF-8"?><svg id="Layer_2" xmlns="http://www.w3.org/2000/svg" viewBox="0 0 148.5 49.06"><defs><style>.cls-1{fill:#fff;}.cls-2{fill:#07549b;stroke:#07549b;stroke-miterlimit:10;stroke-width:.75px;}</style></defs><g id="Layer_1-2"><path class="cls-2" d="M88.85,27.99c-.27-.23-.6-.4-.97-.49-.55-.14-1.07-.08-1.55.18-.48.26-.82.71-1.03,1.34l4.1,1.02c.12-.43.12-.82.02-1.18-.11-.35-.29-.64-.57-.88Z"/><path class="cls-2" d="M115.64,34.67c-.27-.23-.6-.4-.97-.49-.55-.14-1.07-.08-1.55.18-.48.26-.82.71-1.03,1.34l4.1,1.02c.11-.43.12-.82.02-1.17-.11-.35-.29-.64-.57-.88Z"/><path class="cls-2" d="M146.85,42.66c-.78-.19-1.56.19-1.91.88l-4.06-1.01c.06-.16.13-.32.18-.48,2.29-9.19-27.32-24.48-66.13-34.15S2.79-2.17.5,7.01s27.32,24.48,66.13,34.15c37.07,9.24,69.12,10.01,73.91,2.05l4.21,1.05c-.02.77.5,1.48,1.28,1.67.9.23,1.82-.33,2.05-1.23.23-.9-.33-1.82-1.23-2.05ZM69.79,28.59l-.75-.19,1.45-5.83.75.19-1.45,5.83ZM71.14,21.57c-.15-.04-.26-.12-.34-.26-.08-.13-.1-.28-.06-.43s.12-.27.26-.35c.13-.08.27-.1.42-.06.15.04.26.12.35.25.08.13.1.27.06.43s-.12.27-.26.35c-.13.08-.28.1-.42.06ZM77.44,26.87l-.85,3.42-.74-.18.83-3.33c.16-.63.12-1.16-.11-1.57-.23-.41-.62-.69-1.17-.82-.56-.14-1.05-.07-1.48.2-.42.27-.72.75-.89,1.44l-.79,3.18-.75-.19,1.45-5.83.75.19-.25.99c.27-.31.61-.52,1-.62.39-.1.81-.1,1.25.01.7.17,1.21.53,1.55,1.07.33.54.4,1.22.2,2.04ZM79.89,31.11l-.88-6.41.8.2.69,5.59,3.24-4.61.79.2-3.79,5.25-.84-.21ZM90.16,30.26c-.06.26-.12.45-.17.58l-4.83-1.21c-.09.45-.08.85.04,1.21s.31.66.58.9.59.4.96.5c.48.12.92.1,1.31-.05s.69-.41.89-.79l.79.2c-.29.53-.71.92-1.26,1.17-.56.24-1.19.28-1.89.1-.55-.14-1.01-.38-1.38-.74-.37-.35-.63-.79-.76-1.3-.13-.51-.12-1.07.03-1.68s.4-1.11.76-1.5c.36-.39.78-.66,1.27-.79s1.02-.13,1.57,0c.55.14,1.01.38,1.37.73.36.35.6.75.72,1.22.12.46.12.95,0,1.44ZM95.73,30.67l-.75-.19c.06-.35,0-.66-.19-.93-.19-.27-.5-.46-.93-.57-.38-.09-.71-.08-.99.04-.28.12-.45.31-.52.57-.06.23-.03.43.07.61.1.18.25.34.43.47.19.13.44.29.76.48.39.22.7.41.92.58.22.17.4.38.52.63.13.25.15.55.07.89-.08.31-.23.57-.47.77-.23.2-.52.34-.86.4-.34.07-.71.05-1.11-.05-.67-.17-1.18-.46-1.52-.87-.35-.42-.48-.9-.39-1.44l.77.19c-.05.34.04.64.27.91.22.27.57.46,1.03.58.41.1.75.08,1.03-.05s.45-.34.53-.63c.05-.2.03-.38-.07-.54-.1-.16-.23-.3-.41-.43-.18-.12-.42-.27-.74-.44-.41-.22-.73-.42-.97-.6-.24-.18-.43-.41-.56-.68s-.15-.59-.06-.97c.07-.29.22-.53.45-.73.23-.2.52-.33.87-.4s.72-.05,1.12.05c.63.16,1.09.44,1.4.85.31.41.4.9.29,1.46ZM98.74,35.81l-.8-.2c-.53-.13-.89-.35-1.08-.66-.2-.31-.22-.75-.08-1.31l.9-3.62-.81-.2.16-.63.81.2.36-1.46.76.19-.36,1.46,1.6.4-.16.63-1.6-.4-.9,3.62c-.09.36-.08.62.02.79s.32.3.67.38l.68.17-.16.64ZM110.07,35l-.85,3.42-.74-.18.83-3.33c.16-.63.12-1.15-.1-1.57-.22-.41-.6-.68-1.12-.81-.55-.14-1.03-.06-1.45.22-.42.28-.71.77-.88,1.46l-.79,3.16-.74-.18.83-3.33c.16-.63.12-1.15-.1-1.57-.22-.41-.6-.68-1.13-.82-.55-.14-1.03-.06-1.45.22-.42.28-.71.77-.88,1.46l-.79,3.16-.75-.19,1.45-5.83.75.19-.25,1c.28-.32.61-.53,1-.63.39-.1.79-.1,1.21,0,.51.13.92.36,1.24.69s.51.76.56,1.27c.27-.42.63-.71,1.07-.86.44-.15.91-.17,1.39-.05.68.17,1.19.52,1.51,1.06s.38,1.22.18,2.03ZM116.95,36.93c-.06.26-.12.45-.17.58l-4.83-1.21c-.09.45-.08.85.04,1.21.11.36.31.66.58.9.27.24.59.4.96.5.48.12.92.1,1.31-.05s.69-.41.89-.79l.79.2c-.29.53-.71.92-1.26,1.17-.56.24-1.19.28-1.89.1-.55-.14-1.01-.38-1.38-.74-.37-.35-.63-.79-.76-1.3-.13-.51-.12-1.07.03-1.68s.4-1.11.76-1.5c.36-.39.78-.66,1.28-.79s1.02-.13,1.57,0c.55.14,1.01.38,1.37.73.36.35.59.75.72,1.22.12.47.12.95,0,1.44ZM123.47,38.34l-.85,3.42-.74-.18.83-3.33c.16-.63.12-1.16-.11-1.57-.23-.41-.62-.69-1.17-.82-.56-.14-1.05-.07-1.48.2-.42.27-.72.75-.89,1.44l-.79,3.18-.75-.19,1.45-5.83.75.19-.25.99c.27-.31.61-.51,1-.62.39-.1.81-.1,1.25.01.7.17,1.21.53,1.55,1.07.33.54.4,1.22.2,2.04ZM128.14,37.61l-1.6-.4-.9,3.62c-.09.36-.08.62.02.79.1.17.32.3.67.38l.68.17-.16.64-.8-.2c-.53-.13-.89-.35-1.08-.66-.2-.31-.22-.75-.08-1.31l.9-3.62-.81-.2.16-.63.81.2.36-1.46.76.19-.36,1.46,1.6.4-.16.63Z"/><path class="cls-1" d="M71.83,21.15c.04-.16.02-.3-.06-.43-.08-.13-.2-.21-.35-.25-.15-.04-.29-.02-.42.06-.13.08-.22.19-.26.35s-.02.3.06.43c.08.13.19.22.34.26s.29.02.42-.06c.13-.08.22-.2.26-.35Z"/><rect class="cls-1" x="67.14" y="25.2" width="6.01" height=".77" transform="translate(28.33 87.44) rotate(-75.98)"/><path class="cls-1" d="M75.7,23.76c-.44-.11-.86-.11-1.25-.01-.4.1-.73.31-1,.62l.25-.99-.75-.19-1.45,5.83.75.19.79-3.18c.17-.69.47-1.17.89-1.44.42-.27.92-.34,1.48-.2.55.14.94.41,1.17.82.23.41.27.94.11,1.57l-.83,3.33.74.18.85-3.42c.2-.82.14-1.5-.2-2.04-.33-.54-.85-.9-1.55-1.07Z"/><polygon class="cls-1" points="83.73 25.88 80.5 30.49 79.8 24.9 79 24.7 79.89 31.11 80.73 31.32 84.52 26.08 83.73 25.88"/><path class="cls-1" d="M89.44,27.6c-.36-.34-.81-.59-1.37-.73-.55-.14-1.08-.14-1.57,0s-.92.4-1.27.79c-.36.4-.61.9-.76,1.5s-.16,1.16-.03,1.68c.13.51.39.95.76,1.3.37.35.83.6,1.38.74.71.18,1.33.14,1.89-.1.55-.24.97-.63,1.26-1.17l-.79-.2c-.21.37-.5.63-.89.79s-.83.17-1.31.05c-.37-.09-.69-.26-.96-.5s-.47-.54-.58-.9-.13-.76-.04-1.21l4.83,1.21c.05-.13.1-.33.17-.58.12-.5.12-.98,0-1.44-.12-.47-.36-.87-.72-1.22ZM89.4,30.05l-4.1-1.02c.2-.64.55-1.08,1.03-1.34.48-.26,1-.32,1.55-.18.37.09.69.26.97.49s.46.53.57.88c.1.35.1.74-.02,1.18Z"/><path class="cls-1" d="M94.04,28.36c-.4-.1-.77-.12-1.12-.05s-.64.2-.87.4c-.23.2-.38.44-.45.73-.09.38-.08.7.06.97s.32.5.56.68c.24.18.57.38.97.6.31.17.56.32.74.44.18.12.31.27.41.43.1.16.12.34.07.54-.07.29-.25.49-.53.63s-.62.15-1.03.05c-.46-.12-.81-.31-1.03-.58-.22-.27-.31-.57-.27-.91l-.77-.19c-.08.55.05,1.03.39,1.44.35.42.85.71,1.52.87.4.1.77.12,1.11.05.34-.07.63-.2.86-.4.23-.2.39-.46.47-.77.08-.34.05-.64-.07-.89-.13-.25-.3-.46-.52-.63-.22-.17-.53-.36-.92-.58-.32-.19-.58-.35-.76-.48-.19-.13-.33-.29-.43-.47-.1-.18-.12-.38-.07-.61.07-.26.24-.45.52-.57.28-.12.61-.13.99-.04.43.11.74.3.93.57.19.27.26.58.19.93l.75.19c.11-.56.01-1.05-.29-1.46-.3-.41-.77-.7-1.4-.85Z"/><path class="cls-1" d="M97.55,34.62c-.1-.17-.11-.43-.02-.79l.9-3.62,1.6.4.16-.63-1.6-.4.36-1.46-.76-.19-.36,1.46-.81-.2-.16.63.81.2-.9,3.62c-.14.56-.11,1,.08,1.31.19.31.55.53,1.08.66l.8.2.16-.64-.68-.17c-.34-.08-.56-.21-.67-.38Z"/><path class="cls-1" d="M108.38,31.91c-.48-.12-.95-.11-1.39.05-.44.15-.8.44-1.07.86-.05-.51-.24-.94-.56-1.27s-.73-.57-1.24-.69c-.42-.1-.82-.1-1.21,0-.39.1-.72.31-1,.63l.25-1-.75-.19-1.45,5.83.75.19.79-3.16c.17-.69.47-1.18.88-1.46.42-.28.9-.35,1.45-.22.53.13.91.4,1.13.82.22.41.25.93.1,1.57l-.83,3.33.74.18.79-3.16c.17-.69.47-1.18.88-1.46.42-.28.9-.35,1.45-.22.53.13.9.4,1.12.81.22.41.25.93.1,1.57l-.83,3.33.74.18.85-3.42c.2-.82.14-1.5-.18-2.03s-.83-.89-1.51-1.06Z"/><path class="cls-1" d="M116.23,34.27c-.36-.35-.81-.59-1.37-.73-.55-.14-1.08-.14-1.57,0s-.92.4-1.28.79c-.35.4-.61.9-.76,1.5s-.16,1.16-.03,1.68c.13.51.39.95.76,1.3.37.35.83.6,1.38.74.71.18,1.33.14,1.89-.1.55-.24.97-.63,1.26-1.17l-.79-.2c-.21.37-.5.63-.89.79s-.83.17-1.31.05c-.37-.09-.69-.26-.96-.5-.27-.24-.47-.54-.58-.9-.11-.36-.13-.76-.04-1.21l4.83,1.21c.05-.13.1-.33.17-.58.12-.5.13-.98,0-1.44-.12-.46-.36-.87-.72-1.22ZM116.19,36.72l-4.1-1.02c.2-.64.55-1.08,1.03-1.34.48-.26,1-.32,1.55-.18.37.09.69.26.97.49s.46.53.57.88c.1.35.1.74-.02,1.17Z"/><path class="cls-1" d="M121.72,35.23c-.44-.11-.86-.11-1.25-.01-.4.1-.73.31-1,.62l.25-.99-.75-.19-1.45,5.83.75.19.79-3.18c.17-.69.47-1.17.89-1.44.42-.27.92-.34,1.48-.2.55.14.94.41,1.17.82.23.41.27.94.11,1.57l-.83,3.33.74.18.85-3.42c.2-.82.14-1.5-.2-2.04-.33-.54-.85-.9-1.55-1.07Z"/><path class="cls-1" d="M127.06,35.12l-.76-.19-.36,1.46-.81-.2-.16.63.81.2-.9,3.62c-.14.56-.11,1,.08,1.31.19.31.55.53,1.08.66l.8.2.16-.64-.68-.17c-.34-.08-.56-.21-.67-.38-.1-.17-.11-.43-.02-.79l.9-3.62,1.6.4.16-.63-1.6-.4.36-1.46Z"/></g></svg>