<?xml version="1.0" encoding="UTF-8"?><svg id="Layer_2" xmlns="http://www.w3.org/2000/svg" viewBox="0 0 121.23 97.91"><defs><style>.cls-1,.cls-2{fill:#fff;}.cls-2,.cls-3{stroke:#07549b;stroke-miterlimit:10;stroke-width:.75px;}.cls-3,.cls-4{fill:#07549b;}</style></defs><g id="Layer_1-2"><path class="cls-3" d="M74.74,36.27c-.37-.15-.75-.18-1.14-.1-.39.08-.74.25-1.07.5-.49.38-.79.87-.89,1.46-.1.59.05,1.18.46,1.78l3.63-2.84c-.29-.39-.63-.66-1-.8Z"/><path class="cls-3" d="M97.18,18.74c-.37-.15-.75-.18-1.14-.1-.39.08-.74.25-1.07.5-.49.38-.79.87-.89,1.46-.1.59.05,1.18.47,1.78l3.63-2.84c-.29-.39-.63-.66-1-.8Z"/><path class="cls-3" d="M120.44.96c-.61-.7-1.68-.78-2.38-.17-.61.53-.74,1.39-.38,2.07l-3.07,2.66C107.09.08,78.06,13.83,47.87,37.41,16.35,62.04-4.48,88.06,1.35,95.52c5.83,7.46,36.11-6.46,67.63-31.09S121.33,13.79,115.5,6.33c-.09-.12-.21-.22-.31-.32l2.99-2.59c.62.46,1.49.44,2.1-.08.7-.61.78-1.68.17-2.38ZM83.23,24.39c.13-.1.28-.15.45-.13.17.02.3.1.41.23.11.14.15.29.13.46-.02.17-.1.3-.23.41-.13.1-.28.15-.45.12-.17-.02-.31-.1-.42-.24-.11-.14-.15-.29-.13-.46.02-.17.1-.3.23-.4ZM54.47,55.72c-2.65,0-4.8-2.15-4.8-4.8s2.15-4.8,4.8-4.8,4.8,2.15,4.8,4.8-2.15,4.8-4.8,4.8ZM71.78,44.6c-.17.34-.43.65-.79.92-.59.46-1.18.7-1.77.72-.59.02-1.09-.19-1.5-.63l.68-.53c.26.27.58.39.96.38.38,0,.78-.17,1.19-.5.36-.28.57-.59.65-.92.07-.33,0-.62-.19-.87-.14-.18-.31-.28-.51-.3-.2-.03-.42,0-.64.07-.23.07-.52.18-.87.34-.46.2-.85.34-1.17.43-.32.09-.64.1-.96.03-.32-.07-.61-.27-.88-.6-.2-.25-.3-.54-.32-.88-.02-.33.06-.67.24-1.01.18-.34.45-.65.8-.93.55-.43,1.11-.64,1.67-.63.56.02,1.04.26,1.45.73l-.66.52c-.26-.29-.56-.44-.93-.46-.36-.02-.73.12-1.11.42-.33.26-.54.55-.63.87-.08.32-.04.6.15.83.16.2.35.32.57.35.22.03.46.01.69-.06.24-.07.55-.18.93-.33.45-.19.82-.32,1.12-.4.29-.08.59-.09.89-.03.3.06.57.24.81.54.22.28.33.58.35.92.02.34-.06.67-.23,1.01ZM77.45,39.71c-.17.64-.56,1.21-1.18,1.69-.49.38-1,.61-1.56.69s-1.1,0-1.63-.22c-.53-.23-1-.61-1.42-1.15s-.68-1.09-.78-1.66c-.1-.57-.04-1.11.17-1.63.22-.51.57-.96,1.06-1.35.49-.38,1.01-.61,1.54-.69.54-.07,1.04,0,1.53.2.48.21.89.53,1.24.97.18.23.31.41.39.54l-4.28,3.35c.32.38.68.64,1.07.78.39.15.78.18,1.16.1s.75-.24,1.07-.5c.43-.33.71-.72.84-1.16.13-.44.11-.87-.08-1.3l.7-.55c.27.6.32,1.22.16,1.87ZM79.86,38.47l-4.04-5.16.66-.52.72.92c-.11-.43-.08-.86.08-1.27.16-.41.46-.79.89-1.12l.54.69-.18.14c-.48.37-.76.8-.85,1.29-.09.48.1,1.03.58,1.64l2.25,2.88-.66.52ZM84.74,34.66l-6.11-3.54.71-.55,5.27,3.16-1.79-5.88.7-.55,1.96,6.78-.75.58ZM88.46,31.76l-4.03-5.16.66-.52,4.03,5.16-.66.52ZM94.08,26.71c-.16.65-.56,1.22-1.19,1.71-.49.38-1,.61-1.55.69-.55.08-1.09,0-1.61-.23-.53-.23-1-.62-1.42-1.15-.42-.54-.68-1.09-.78-1.66-.1-.57-.04-1.11.17-1.62.21-.51.55-.96,1.04-1.34.64-.5,1.29-.75,1.94-.76.66,0,1.26.21,1.8.66l-.71.55c-.38-.3-.8-.45-1.25-.43-.46.02-.91.2-1.34.54-.35.27-.6.59-.75.97s-.19.78-.11,1.22c.08.44.3.88.66,1.34s.74.78,1.14.97c.41.19.81.25,1.21.2.4-.06.77-.22,1.12-.5.44-.34.72-.73.85-1.17.13-.44.09-.88-.12-1.33l.71-.55c.29.62.36,1.26.19,1.91ZM99.89,22.17c-.16.64-.56,1.21-1.18,1.69-.49.38-1.01.61-1.56.69s-1.1,0-1.63-.22c-.53-.23-1-.61-1.42-1.15s-.68-1.09-.78-1.66c-.1-.57-.04-1.11.17-1.63.22-.51.57-.96,1.06-1.35.49-.38,1.01-.61,1.54-.69.54-.07,1.05,0,1.53.2.48.21.9.53,1.24.97.18.23.31.41.39.54l-4.28,3.35c.32.38.68.64,1.07.78.39.15.78.18,1.16.1.39-.07.75-.24,1.07-.5.43-.33.71-.72.84-1.16.13-.44.11-.87-.08-1.3l.7-.55c.27.6.32,1.22.16,1.87ZM104.92,18.71c-.17.34-.43.64-.79.92-.59.46-1.18.7-1.77.72-.59.02-1.09-.19-1.5-.63l.68-.53c.26.27.58.39.96.38.38-.01.78-.18,1.19-.5.36-.28.57-.59.65-.92.07-.33,0-.62-.19-.87-.14-.18-.31-.28-.51-.3-.2-.02-.42,0-.64.07s-.52.18-.87.34c-.46.2-.86.34-1.17.43-.32.09-.64.1-.96.03-.32-.07-.61-.27-.88-.6-.2-.25-.3-.54-.32-.88-.02-.33.06-.67.24-1.01.18-.34.44-.65.8-.93.55-.43,1.11-.64,1.67-.63.56.02,1.04.26,1.45.73l-.66.52c-.25-.29-.56-.44-.93-.46s-.73.12-1.11.42c-.33.26-.54.55-.63.87s-.04.6.15.83c.16.2.35.32.57.35s.46.01.69-.06c.24-.07.55-.18.93-.33.45-.19.82-.32,1.12-.4.29-.08.59-.09.89-.03.3.06.57.24.81.54.22.28.33.58.35.92s-.06.67-.23,1.01Z"/><path class="cls-1" d="M70.85,42.14c-.3-.06-.6-.05-.89.03-.29.08-.67.21-1.12.4-.38.15-.69.26-.93.33-.24.07-.47.09-.69.06-.22-.03-.42-.15-.57-.35-.18-.23-.23-.51-.15-.83.08-.32.29-.61.63-.87.38-.3.75-.44,1.11-.42.36.02.67.17.93.46l.66-.52c-.41-.47-.89-.71-1.45-.73-.56-.01-1.12.2-1.67.63-.35.28-.62.59-.8.93-.18.34-.26.68-.24,1.01.02.33.12.62.32.88.26.33.55.54.88.6.32.07.64.06.96-.03.32-.09.71-.23,1.17-.43.36-.16.65-.27.87-.34.22-.07.44-.09.64-.07.2.02.37.12.51.3.2.25.26.54.19.87-.07.33-.29.64-.65.92-.41.32-.81.49-1.19.5-.38.01-.7-.12-.96-.38l-.68.53c.41.44.92.65,1.5.63.59-.02,1.18-.26,1.77-.72.35-.28.62-.58.79-.92.17-.34.25-.67.23-1.01-.02-.34-.14-.64-.35-.92-.24-.3-.51-.48-.81-.54Z"/><path class="cls-1" d="M76.6,38.39c.18.43.21.86.08,1.3-.13.44-.41.82-.84,1.16-.33.26-.69.42-1.07.5s-.78.04-1.16-.1c-.39-.14-.74-.4-1.07-.78l4.28-3.35c-.08-.13-.21-.31-.39-.54-.35-.44-.76-.76-1.24-.97-.48-.21-.99-.27-1.53-.2-.54.07-1.05.3-1.54.69-.49.38-.85.83-1.06,1.35-.22.52-.28,1.06-.17,1.63.1.57.36,1.12.78,1.66s.89.92,1.42,1.15c.53.23,1.07.3,1.63.22s1.07-.31,1.56-.69c.62-.49,1.02-1.05,1.18-1.69.16-.64.11-1.26-.16-1.87l-.7.55ZM71.65,38.13c.1-.59.4-1.07.89-1.46.33-.26.68-.42,1.07-.5.38-.08.76-.04,1.14.1.37.15.71.41,1,.8l-3.63,2.84c-.41-.6-.57-1.2-.46-1.78Z"/><path class="cls-1" d="M77.69,33.44c.09-.48.37-.92.85-1.29l.18-.14-.54-.69c-.44.34-.73.71-.89,1.12-.16.41-.19.83-.08,1.27l-.72-.92-.66.52,4.04,5.16.66-.52-2.25-2.88c-.47-.61-.67-1.15-.58-1.64Z"/><polygon class="cls-1" points="82.82 27.84 84.62 33.72 79.34 30.56 78.64 31.12 84.74 34.66 85.49 34.08 83.52 27.3 82.82 27.84"/><path class="cls-1" d="M83.54,25.49c.17.02.32-.02.45-.12.13-.1.21-.24.23-.41.02-.17-.02-.32-.13-.46-.11-.14-.25-.22-.41-.23-.17-.02-.31.03-.45.13-.13.1-.21.24-.23.4-.02.17.02.32.13.46.11.14.25.22.42.24Z"/><rect class="cls-1" x="86.35" y="25.64" width=".84" height="6.55" transform="translate(.59 59.56) rotate(-38)"/><path class="cls-1" d="M93.17,25.36c.21.45.25.89.12,1.33-.13.44-.41.83-.85,1.17-.35.27-.72.44-1.12.5-.4.06-.8,0-1.21-.2-.41-.19-.79-.51-1.14-.97s-.57-.9-.66-1.34c-.08-.44-.05-.84.11-1.22s.4-.7.75-.97c.43-.34.88-.52,1.34-.54.46-.02.88.12,1.25.43l.71-.55c-.54-.45-1.14-.67-1.8-.66-.66,0-1.31.26-1.94.76-.49.38-.83.83-1.04,1.34-.21.51-.26,1.05-.17,1.62.1.57.36,1.12.78,1.66.42.54.89.92,1.42,1.15.53.23,1.06.31,1.61.23.55-.08,1.06-.31,1.55-.69.63-.49,1.03-1.06,1.19-1.71.17-.65.1-1.28-.19-1.91l-.71.55Z"/><path class="cls-1" d="M99.04,20.86c.18.43.21.86.08,1.3-.13.44-.41.82-.84,1.16-.33.26-.69.42-1.07.5-.39.07-.78.04-1.16-.1-.39-.14-.74-.4-1.07-.78l4.28-3.35c-.08-.13-.21-.31-.39-.54-.34-.44-.76-.77-1.24-.97-.48-.21-.99-.27-1.53-.2-.54.07-1.05.3-1.54.69-.49.38-.85.83-1.06,1.35-.22.52-.27,1.06-.17,1.63.1.57.36,1.12.78,1.66s.89.92,1.42,1.15c.53.23,1.07.3,1.63.22s1.07-.31,1.56-.69c.62-.49,1.02-1.05,1.18-1.69s.11-1.26-.16-1.87l-.7.55ZM94.08,20.6c.1-.59.4-1.07.89-1.46.33-.26.69-.42,1.07-.5.39-.08.76-.04,1.14.1.37.15.71.41,1,.8l-3.63,2.84c-.41-.6-.57-1.2-.47-1.78Z"/><path class="cls-1" d="M103.99,16.24c-.3-.06-.6-.05-.89.03-.29.08-.67.21-1.12.4-.38.15-.69.27-.93.33-.24.07-.47.09-.69.06s-.42-.15-.57-.35c-.18-.23-.23-.51-.15-.83s.29-.61.63-.87c.38-.3.75-.43,1.11-.42s.67.17.93.46l.66-.52c-.41-.47-.89-.71-1.45-.73-.56-.01-1.12.19-1.67.63-.35.28-.62.59-.8.93-.18.34-.26.68-.24,1.01.02.33.12.62.32.88.26.33.55.54.88.6.32.07.64.06.96-.03.32-.09.71-.23,1.17-.43.35-.16.64-.27.87-.34s.44-.09.64-.07c.2.02.37.13.51.3.2.25.26.54.19.87-.07.33-.29.64-.65.92-.41.32-.81.49-1.19.5-.38,0-.7-.12-.96-.38l-.68.53c.41.44.91.65,1.5.63.59-.02,1.18-.26,1.77-.72.35-.28.62-.58.79-.92.17-.34.25-.67.23-1.01s-.14-.64-.35-.92c-.24-.3-.51-.48-.81-.54Z"/><path class="cls-2" d="M54.47,46.12c-2.65,0-4.8,2.15-4.8,4.8s2.15,4.8,4.8,4.8,4.8-2.15,4.8-4.8-2.15-4.8-4.8-4.8ZM56.01,53.29h-.44v-2c0-.38-.1-.67-.28-.87-.19-.2-.45-.3-.78-.3s-.61.11-.81.32c-.2.21-.3.53-.3.94v1.91h-.45v-4.74h.45v1.84c.11-.21.27-.37.49-.49.22-.12.46-.17.73-.17s.5.06.71.17c.21.11.38.28.5.51.12.23.18.51.18.84v2.05Z"/><path class="cls-4" d="M55.33,49.9c-.21-.11-.45-.17-.71-.17s-.51.06-.73.17c-.22.12-.38.28-.49.49v-1.84h-.45v4.74h.45v-1.91c0-.41.1-.73.3-.94.2-.21.47-.32.81-.32s.59.1.78.3c.19.2.28.49.28.87v2h.44v-2.05c0-.33-.06-.61-.18-.84-.12-.23-.29-.4-.5-.51Z"/></g></svg>