<?xml version="1.0" encoding="UTF-8"?><svg id="Layer_2" xmlns="http://www.w3.org/2000/svg" viewBox="0 0 117.73 100.06"><defs><style>.cls-1,.cls-2{fill:#fff;}.cls-2,.cls-3{stroke:#07549b;stroke-miterlimit:10;stroke-width:.75px;}.cls-3,.cls-4{fill:#07549b;}</style></defs><g id="Layer_1-2"><path class="cls-3" d="M79.47,64.83c-.36-.3-.74-.49-1.16-.56-.42-.08-.83-.03-1.25.13-.42.17-.8.46-1.15.88-.34.41-.57.84-.66,1.29-.1.45-.07.87.07,1.27.15.4.4.75.75,1.05.34.29.73.47,1.15.54.42.07.85.03,1.27-.14.42-.17.8-.45,1.14-.86.34-.4.56-.83.65-1.28.09-.45.06-.87-.08-1.27-.15-.41-.39-.75-.73-1.04Z"/><path class="cls-3" d="M74.53,62.03c.06-.4.02-.77-.14-1.13-.16-.36-.39-.68-.71-.94-.48-.4-1.01-.59-1.61-.57-.59.02-1.14.3-1.65.83l3.53,2.96c.32-.37.51-.75.58-1.14Z"/><path class="cls-3" d="M116.77,96.72c-.61-.53-1.48-.54-2.1-.08l-1.97-1.71c5.19-7.74-14.56-34.01-44.72-59.31C37.33,9.91,7.55-5.05,1.47,2.2c-6.08,7.25,13.83,33.97,44.47,59.68,30.31,25.43,59.76,40.33,66.29,33.63l1.95,1.69c-.36.68-.22,1.54.38,2.07.7.61,1.77.53,2.38-.17.61-.7.53-1.77-.17-2.38ZM49.78,48.68c-2.65,0-4.8-2.15-4.8-4.8s2.15-4.8,4.8-4.8,4.8,2.15,4.8,4.8-2.15,4.8-4.8,4.8ZM66.67,61.81l-.69-.58c-.45-.38-.7-.77-.75-1.17-.04-.4.14-.84.54-1.32l2.61-3.12-.7-.59.45-.54.7.59,1.06-1.26.65.55-1.06,1.26,1.38,1.16-.45.54-1.38-1.16-2.61,3.12c-.26.31-.38.57-.36.78.02.21.18.45.47.69l.59.49-.46.55ZM69.58,63.11c.15.36.39.68.71.95.42.35.85.54,1.31.58.46.04.87-.08,1.25-.34l.68.57c-.53.39-1.13.57-1.79.54s-1.29-.29-1.9-.8c-.47-.4-.81-.86-1-1.38-.2-.53-.24-1.07-.12-1.64.11-.57.39-1.11.83-1.63.44-.52.92-.89,1.46-1.11.54-.22,1.08-.27,1.63-.17.55.11,1.06.36,1.54.76.48.4.81.86.99,1.37.18.51.22,1.02.12,1.54-.1.51-.33.99-.69,1.42-.18.22-.33.38-.44.49l-4.16-3.49c-.3.4-.48.8-.54,1.21-.06.41-.01.79.14,1.16ZM77.53,70.93l.93-1.11c-.45.21-.94.28-1.47.21s-1.04-.3-1.52-.7c-.45-.38-.77-.83-.96-1.35-.19-.52-.22-1.06-.09-1.63s.4-1.1.83-1.62c.43-.51.91-.88,1.45-1.1.53-.22,1.07-.28,1.61-.18.54.09,1.04.33,1.5.72.48.4.8.86.96,1.37.16.51.17,1,.04,1.47l.93-1.1.64.54-4.21,5.02-.64-.54ZM90.09,76.45l-2.47,2.94-.63-.53,2.41-2.87c.46-.55.68-1.07.65-1.58-.02-.51-.26-.95-.71-1.33-.47-.4-.98-.56-1.52-.48-.54.08-1.07.41-1.56,1.01l-2.28,2.72-.63-.53,2.41-2.87c.46-.55.68-1.07.65-1.58s-.26-.96-.72-1.34c-.47-.4-.98-.56-1.52-.48s-1.07.41-1.56,1.01l-2.28,2.72-.64-.54,4.21-5.02.64.54-.73.86c.42-.18.85-.23,1.28-.14.43.08.83.28,1.19.58.44.37.73.79.88,1.27.15.48.13.99-.06,1.52.47-.29.96-.4,1.46-.33.51.06.97.27,1.38.62.59.49.91,1.08.97,1.76.06.68-.21,1.38-.8,2.08Z"/><path class="cls-1" d="M66.07,60.08c-.02-.21.1-.47.36-.78l2.61-3.12,1.38,1.16.45-.54-1.38-1.16,1.06-1.26-.65-.55-1.06,1.26-.7-.59-.45.54.7.59-2.61,3.12c-.41.48-.59.93-.54,1.32.04.4.29.79.75,1.17l.69.58.46-.55-.59-.49c-.29-.25-.45-.48-.47-.69Z"/><path class="cls-1" d="M69.98,60.74l4.16,3.49c.11-.11.26-.27.44-.49.36-.43.59-.9.69-1.42.1-.51.06-1.03-.12-1.54-.18-.51-.51-.96-.99-1.37-.48-.4-.99-.65-1.54-.76-.55-.11-1.09-.05-1.63.17-.54.22-1.02.59-1.46,1.11-.44.52-.71,1.06-.83,1.63-.12.57-.08,1.11.12,1.64.2.52.53.99,1,1.38.61.51,1.24.78,1.9.8s1.26-.15,1.79-.54l-.68-.57c-.38.27-.8.38-1.25.34-.45-.04-.89-.23-1.31-.58-.32-.27-.56-.58-.71-.95-.15-.37-.2-.75-.14-1.16.06-.41.24-.81.54-1.21ZM72.07,59.39c.59-.02,1.13.17,1.61.57.32.27.56.58.71.94.16.36.2.74.14,1.13-.06.39-.26.78-.58,1.14l-3.53-2.96c.5-.53,1.05-.8,1.65-.83Z"/><path class="cls-1" d="M81.75,65.91l-.93,1.1c.14-.47.12-.96-.04-1.47-.16-.51-.48-.97-.96-1.37-.46-.39-.96-.63-1.5-.72-.54-.09-1.08-.03-1.61.18-.53.22-1.01.58-1.45,1.1-.43.51-.71,1.05-.83,1.62s-.09,1.11.09,1.63c.18.52.5.97.96,1.35.48.4.98.63,1.52.7s1.02,0,1.47-.21l-.93,1.11.64.54,4.21-5.02-.64-.54ZM80.29,67.14c-.09.45-.31.87-.65,1.28-.34.4-.72.69-1.14.86-.42.17-.85.21-1.27.14-.42-.07-.81-.25-1.15-.54-.36-.3-.61-.65-.75-1.05-.15-.4-.17-.82-.07-1.27.1-.45.32-.87.66-1.29.35-.42.73-.71,1.15-.88.42-.17.83-.21,1.25-.13.41.08.8.26,1.16.56.34.29.59.63.73,1.04.15.4.17.83.08,1.27Z"/><path class="cls-1" d="M89.91,72.6c-.42-.35-.88-.56-1.38-.62-.51-.06-.99.05-1.46.33.19-.53.21-1.03.06-1.52-.15-.48-.45-.91-.88-1.27-.36-.3-.76-.5-1.19-.58-.43-.08-.86-.04-1.28.14l.73-.86-.64-.54-4.21,5.02.64.54,2.28-2.72c.5-.59,1.02-.93,1.56-1.01s1.05.08,1.52.48c.46.39.7.83.72,1.34s-.2,1.04-.65,1.58l-2.41,2.87.63.53,2.28-2.72c.5-.6,1.02-.93,1.56-1.01.54-.08,1.05.08,1.52.48.45.38.69.83.71,1.33.02.51-.2,1.04-.65,1.58l-2.41,2.87.63.53,2.47-2.94c.59-.71.86-1.4.8-2.08-.06-.68-.38-1.27-.97-1.76Z"/><path class="cls-2" d="M49.78,39.08c-2.65,0-4.8,2.15-4.8,4.8s2.15,4.8,4.8,4.8,4.8-2.15,4.8-4.8-2.15-4.8-4.8-4.8ZM51.33,46.24h-.44v-2c0-.38-.1-.67-.28-.87-.19-.2-.45-.3-.78-.3s-.61.11-.81.32c-.2.21-.3.53-.3.94v1.91h-.45v-4.74h.45v1.84c.11-.21.27-.37.49-.49.22-.12.46-.17.73-.17s.5.06.71.17c.21.11.38.28.5.51.12.23.18.51.18.84v2.05Z"/><path class="cls-4" d="M50.65,42.85c-.21-.11-.45-.17-.71-.17s-.51.06-.73.17c-.22.12-.38.28-.49.49v-1.84h-.45v4.74h.45v-1.91c0-.41.1-.73.3-.94.2-.21.47-.32.81-.32s.59.1.78.3c.19.2.28.49.28.87v2h.44v-2.05c0-.33-.06-.61-.18-.84-.12-.23-.29-.4-.5-.51Z"/></g></svg>