<?xml version="1.0" encoding="UTF-8"?><svg id="Layer_2" xmlns="http://www.w3.org/2000/svg" viewBox="0 0 148.6 45.83"><defs><style>.cls-1,.cls-2{fill:#fff;}.cls-2,.cls-3{stroke:#07549b;stroke-miterlimit:10;stroke-width:.75px;}.cls-3,.cls-4{fill:#07549b;}</style></defs><g id="Layer_1-2"><path class="cls-3" d="M103.34,20.86c-.22-.25-.48-.43-.8-.52-.31-.09-.64-.11-.98-.05-.51.09-.92.33-1.23.72-.3.39-.42.89-.36,1.49l3.78-.65c-.06-.4-.2-.73-.42-.98Z"/><path class="cls-3" d="M86.03,23.84c-.22-.25-.48-.43-.8-.52-.31-.09-.64-.11-.98-.05-.51.09-.92.33-1.23.72-.3.39-.42.89-.36,1.49l3.78-.65c-.06-.4-.2-.73-.42-.98Z"/><path class="cls-3" d="M97.21,22.07c-.23-.3-.51-.5-.84-.62-.33-.12-.69-.15-1.07-.08-.37.06-.69.21-.96.44-.27.23-.47.52-.59.88-.12.36-.14.76-.07,1.19s.23.8.46,1.1c.23.3.52.51.86.63.34.12.69.16,1.06.09.38-.07.71-.21.98-.44.27-.23.47-.52.58-.88.12-.36.14-.76.06-1.2-.08-.45-.23-.82-.46-1.11Z"/><path class="cls-3" d="M98.65,10.69c-.23-.3-.52-.51-.85-.63-.34-.12-.69-.16-1.06-.09-.38.07-.71.21-.98.43-.27.22-.47.51-.59.87-.12.35-.14.76-.06,1.2.08.44.23.81.46,1.11.23.3.51.51.85.64.33.12.69.15,1.07.08.37-.06.69-.21.96-.44.28-.23.47-.52.59-.88.12-.36.14-.76.07-1.19s-.23-.8-.46-1.1Z"/><path class="cls-3" d="M114.97,7.82c-.24-.29-.53-.49-.85-.6-.33-.11-.67-.13-1.03-.07s-.67.2-.94.41c-.27.21-.47.5-.6.85-.12.36-.15.77-.06,1.24.08.47.24.86.48,1.15.24.29.52.5.84.61.33.11.67.13,1.02.07.35-.06.67-.2.94-.41.27-.21.48-.5.61-.86.13-.36.16-.77.07-1.25-.08-.47-.24-.86-.48-1.15Z"/><path class="cls-3" d="M148.19,7.06c-.19-.91-1.09-1.49-2-1.3-.79.17-1.32.86-1.33,1.63l-2.69.57s0-.07-.01-.1c-1.97-9.26-35.28-10.02-74.41-1.7C28.62,14.47-1.5,28.72.47,37.98c1.97,9.26,35.28,10.02,74.41,1.7,37.94-8.07,67.42-21.71,67.37-30.98l2.77-.59c.32.7,1.09,1.11,1.88.94.91-.19,1.49-1.09,1.3-2ZM67.51,28.52c-2.65,0-4.8-2.15-4.8-4.8s2.15-4.8,4.8-4.8,4.8,2.15,4.8,4.8-2.15,4.8-4.8,4.8ZM107.09,6.25l.7-.12.23,1.35,1.48-.25.1.58-1.48.25.58,3.34c.06.33.16.54.3.65s.38.13.69.07l.63-.11.1.59-.74.13c-.49.08-.87.03-1.14-.15-.27-.19-.46-.54-.55-1.06l-.58-3.34-.75.13-.1-.58.75-.13-.23-1.35ZM100.88,7.32l.7-.12.23,1.35,1.48-.25.1.58-1.48.25.58,3.34c.06.33.16.54.3.65.15.1.38.13.69.07l.63-.11.1.59-.74.13c-.49.08-.87.03-1.14-.15-.27-.19-.46-.54-.55-1.06l-.58-3.34-.75.13-.1-.58.75-.13-.23-1.35ZM88.39,8.89l.49,2.83c.12-.35.32-.64.63-.88.3-.23.66-.39,1.07-.46.41-.07.79-.05,1.14.07s.66.33.9.65c.25.32.42.73.5,1.24l.54,3.15-.68.12-.53-3.07c-.1-.58-.32-1.01-.67-1.26-.34-.26-.77-.34-1.28-.26-.52.09-.9.33-1.16.71-.25.38-.32.89-.21,1.53l.51,2.94-.69.12-1.26-7.29.69-.12ZM80.05,12.3l2.15,4.45.7-4.94.69-.12,2.3,4.43.52-4.92.68-.12-.76,5.67-.69.12-2.27-4.26-.71,4.77-.7.12-2.61-5.09.7-.12ZM86.67,27.43c-.37.41-.89.67-1.54.78-.51.09-.98.05-1.42-.11-.44-.16-.81-.43-1.11-.8-.3-.38-.5-.85-.59-1.4-.1-.56-.07-1.07.08-1.53.15-.46.41-.83.77-1.13.36-.29.8-.48,1.31-.57.51-.09.98-.05,1.4.1.42.16.77.41,1.04.75.27.34.45.74.53,1.2.04.24.06.42.07.54l-4.46.77c.09.4.25.74.48.99.23.26.5.44.81.54.31.1.64.12.98.06.45-.08.8-.25,1.07-.52.27-.27.42-.6.45-.98l.73-.13c-.04.55-.25,1.03-.62,1.43ZM91.74,26.99l-1.76-1.93-.97,2.4-.73.13,1.27-2.99-2.18-2.4.78-.13,1.74,1.9.96-2.37.72-.12-1.26,2.96,2.2,2.42-.78.13ZM98.29,24.58c-.15.46-.4.84-.75,1.13-.35.3-.77.49-1.26.57-.51.09-.97.04-1.38-.13-.42-.17-.74-.43-.97-.76l.64,3.72-.68.12-1.37-7.92.68-.12.2,1.18c.11-.39.33-.74.66-1.04.33-.3.75-.5,1.26-.59.49-.08.94-.05,1.37.11.43.16.79.43,1.08.81.29.38.49.85.58,1.4.1.55.07,1.06-.08,1.52ZM97.45,14.92c-.49.08-.94.04-1.38-.12-.43-.16-.79-.44-1.08-.82-.29-.38-.49-.85-.58-1.4-.09-.55-.07-1.06.08-1.51.15-.46.4-.83.75-1.12.35-.29.77-.48,1.27-.57.51-.09.97-.05,1.39.13.41.17.73.43.96.77l-.2-1.18.69-.12.93,5.38-.69.12-.21-1.19c-.11.4-.33.75-.66,1.05-.33.3-.75.5-1.26.59ZM103.98,24.45c-.37.41-.89.66-1.54.78-.51.09-.98.05-1.42-.11-.44-.16-.81-.43-1.11-.8-.3-.38-.5-.85-.59-1.4-.1-.56-.07-1.07.08-1.53.15-.46.41-.83.77-1.13.36-.29.8-.48,1.31-.57.51-.09.98-.05,1.4.1.42.16.77.41,1.04.75.27.34.45.74.53,1.2.04.24.06.42.07.55l-4.46.77c.09.4.25.73.48.99s.5.44.81.54c.31.1.64.12.98.06.45-.08.8-.25,1.07-.52.27-.27.42-.6.45-.98l.73-.13c-.04.55-.25,1.02-.62,1.43ZM110.09,23.39c-.38.41-.89.67-1.55.78-.51.09-.98.05-1.41-.11-.43-.16-.8-.43-1.09-.81-.3-.38-.49-.85-.59-1.41-.1-.56-.07-1.07.08-1.52.15-.46.4-.83.76-1.13.36-.29.79-.49,1.29-.57.66-.11,1.24-.04,1.73.21.49.25.84.65,1.06,1.2l-.74.13c-.16-.37-.41-.64-.75-.81-.34-.17-.74-.21-1.19-.13-.36.06-.67.2-.93.41s-.45.5-.56.85c-.11.35-.13.77-.04,1.24s.23.86.46,1.16c.22.3.49.51.81.62.32.11.66.14,1.02.08.45-.08.81-.25,1.08-.53.27-.27.41-.61.44-1.02l.74-.13c-.03.57-.23,1.06-.61,1.47ZM113.91,23.17c-.49.08-.87.03-1.14-.15-.28-.19-.46-.54-.55-1.06l-.58-3.34-.75.13-.1-.58.75-.13-.23-1.35.7-.12.23,1.35,1.48-.25.1.58-1.48.25.58,3.34c.06.33.16.54.3.65.15.1.38.13.69.07l.63-.11.1.59-.74.13ZM116.06,10.36c-.16.46-.43.84-.81,1.14s-.82.49-1.32.58c-.51.09-.98.05-1.42-.11-.44-.16-.82-.42-1.12-.8-.31-.38-.51-.84-.6-1.4-.1-.56-.06-1.07.1-1.52s.43-.83.8-1.13c.37-.3.81-.49,1.31-.58.51-.09.98-.05,1.43.1.45.16.83.42,1.13.8s.51.84.6,1.4c.1.55.06,1.06-.1,1.52Z"/><polygon class="cls-1" points="82.67 17.39 83.38 12.62 85.64 16.87 86.33 16.76 87.09 11.08 86.41 11.2 85.89 16.12 83.59 11.69 82.9 11.81 82.2 16.75 80.05 12.3 79.35 12.42 81.97 17.51 82.67 17.39"/><path class="cls-1" d="M89.64,16.19l-.51-2.94c-.11-.64-.04-1.15.21-1.53.25-.38.64-.62,1.16-.71.51-.09.93,0,1.28.26.35.26.57.68.67,1.26l.53,3.07.68-.12-.54-3.15c-.09-.51-.25-.92-.5-1.24-.25-.32-.55-.54-.9-.65s-.74-.14-1.14-.07c-.41.07-.77.22-1.07.46-.3.23-.51.53-.63.88l-.49-2.83-.69.12,1.26,7.29.69-.12Z"/><path class="cls-1" d="M99.58,14.47l.69-.12-.93-5.38-.69.12.2,1.18c-.23-.34-.55-.6-.96-.77-.41-.17-.87-.21-1.39-.13-.49.08-.92.27-1.27.57-.35.29-.6.67-.75,1.12-.15.46-.17.96-.08,1.51.1.55.29,1.02.58,1.4.29.38.65.65,1.08.82.43.16.89.2,1.38.12.51-.09.93-.28,1.26-.59.33-.3.55-.65.66-1.05l.21,1.19ZM99.04,12.97c-.12.36-.32.65-.59.88-.27.23-.6.38-.96.44-.38.07-.74.04-1.07-.08-.33-.12-.61-.33-.85-.64-.23-.3-.39-.67-.46-1.11-.08-.45-.06-.85.06-1.2.12-.36.31-.64.59-.87.27-.22.6-.37.98-.43.37-.06.72-.03,1.06.09.34.12.62.34.85.63.23.3.39.66.46,1.1s.05.83-.07,1.19Z"/><path class="cls-1" d="M100.46,9.38l.75-.13.58,3.34c.09.52.27.87.55,1.06.28.19.66.24,1.14.15l.74-.13-.1-.59-.63.11c-.31.05-.55.03-.69-.07-.15-.1-.25-.32-.3-.65l-.58-3.34,1.48-.25-.1-.58-1.48.25-.23-1.35-.7.12.23,1.35-.75.13.1.58Z"/><path class="cls-1" d="M106.67,8.31l.75-.13.58,3.34c.09.52.27.87.55,1.06.28.19.66.24,1.14.15l.74-.13-.1-.59-.63.11c-.32.05-.55.03-.69-.07s-.25-.32-.3-.65l-.58-3.34,1.48-.25-.1-.58-1.48.25-.23-1.35-.7.12.23,1.35-.75.13.1.58Z"/><path class="cls-1" d="M115.56,7.44c-.31-.38-.68-.64-1.13-.8-.45-.16-.93-.19-1.43-.1-.51.09-.94.28-1.31.58-.37.3-.63.67-.8,1.13s-.2.97-.1,1.52c.1.56.3,1.03.6,1.4.31.38.68.64,1.12.8.44.16.92.19,1.42.11.5-.09.95-.28,1.32-.58s.64-.68.81-1.14c.16-.46.2-.97.1-1.52-.1-.56-.3-1.03-.6-1.4ZM115.38,10.21c-.13.36-.33.64-.61.86-.27.21-.59.35-.94.41-.36.06-.7.04-1.02-.07-.33-.11-.61-.31-.84-.61-.24-.29-.4-.68-.48-1.15-.08-.47-.06-.89.06-1.24.12-.36.32-.64.6-.85.27-.21.59-.35.94-.41s.7-.04,1.03.07c.33.11.61.31.85.6.24.29.4.68.48,1.15.08.47.06.89-.07,1.25Z"/><path class="cls-1" d="M86.1,27.11c-.27.27-.63.44-1.07.52-.34.06-.67.04-.98-.06-.31-.1-.59-.28-.81-.54-.23-.26-.39-.59-.48-.99l4.46-.77c0-.13-.03-.31-.07-.54-.08-.46-.26-.86-.53-1.2-.27-.34-.62-.59-1.04-.75-.42-.16-.89-.19-1.4-.1-.51.09-.95.28-1.31.57-.36.29-.62.67-.77,1.13-.15.46-.18.97-.08,1.53.1.56.29,1.03.59,1.4.3.38.67.65,1.11.8.44.16.91.19,1.42.11.65-.11,1.16-.37,1.54-.78.37-.41.58-.88.62-1.43l-.73.13c-.04.39-.19.71-.45.98ZM83.02,23.98c.3-.39.71-.63,1.23-.72.34-.06.67-.04.98.05.31.09.58.27.8.52.22.25.36.58.42.98l-3.78.65c-.06-.6.06-1.1.36-1.49Z"/><polygon class="cls-1" points="91.57 21.47 90.85 21.6 89.89 23.97 88.15 22.06 87.37 22.2 89.55 24.59 88.28 27.58 89.01 27.46 89.97 25.06 91.74 26.99 92.52 26.85 90.31 24.43 91.57 21.47"/><path class="cls-1" d="M97.79,21.67c-.29-.38-.65-.65-1.08-.81-.43-.16-.89-.2-1.37-.11-.51.09-.93.28-1.26.59-.33.3-.55.65-.66,1.04l-.2-1.18-.68.12,1.37,7.92.68-.12-.64-3.72c.23.33.56.59.97.76.42.18.88.22,1.38.13.49-.08.9-.27,1.26-.57.35-.3.6-.68.75-1.13.15-.46.17-.96.08-1.52-.09-.55-.29-1.02-.58-1.4ZM97.61,24.39c-.12.36-.31.66-.58.88-.27.23-.6.37-.98.44-.37.06-.72.03-1.06-.09-.34-.12-.62-.34-.86-.63-.23-.3-.39-.66-.46-1.1s-.05-.83.07-1.19c.12-.36.32-.65.59-.88.27-.23.6-.38.96-.44.38-.07.74-.04,1.07.08.33.12.61.33.84.62.23.29.38.67.46,1.11.08.44.06.84-.06,1.2Z"/><path class="cls-1" d="M103.42,24.12c-.27.27-.63.44-1.07.52-.34.06-.67.04-.98-.06-.31-.1-.59-.28-.81-.54s-.39-.59-.48-.99l4.46-.77c0-.13-.03-.31-.07-.55-.08-.46-.26-.86-.53-1.2-.27-.34-.62-.59-1.04-.75-.42-.16-.89-.19-1.4-.1-.51.09-.95.28-1.31.57-.36.29-.62.67-.77,1.13-.15.46-.18.97-.08,1.53.1.56.29,1.03.59,1.4.3.38.67.65,1.11.8.44.16.91.19,1.42.11.65-.11,1.16-.37,1.54-.78.37-.41.58-.88.62-1.43l-.73.13c-.04.39-.19.71-.45.98ZM100.34,21c.3-.39.71-.63,1.23-.72.34-.06.67-.04.98.05.31.1.58.27.8.52.22.25.36.58.42.98l-3.78.65c-.06-.6.06-1.1.36-1.49Z"/><path class="cls-1" d="M109.53,23.06c-.27.27-.63.45-1.08.53-.36.06-.7.04-1.02-.08-.32-.11-.59-.32-.81-.62-.22-.3-.38-.69-.46-1.16s-.07-.89.04-1.24c.11-.35.3-.64.56-.85s.57-.35.93-.41c.45-.08.85-.03,1.19.13.34.17.59.44.75.81l.74-.13c-.22-.54-.58-.94-1.06-1.2-.49-.25-1.06-.32-1.73-.21-.51.09-.94.28-1.29.57-.35.29-.61.67-.76,1.13-.15.46-.18.96-.08,1.52.1.56.29,1.03.59,1.41.3.38.66.65,1.09.81.43.16.9.19,1.41.11.66-.11,1.17-.37,1.55-.78s.58-.9.61-1.47l-.74.13c-.02.41-.17.75-.44,1.02Z"/><path class="cls-1" d="M113.92,22.56c-.32.05-.55.03-.69-.07-.15-.1-.25-.32-.3-.65l-.58-3.34,1.48-.25-.1-.58-1.48.25-.23-1.35-.7.12.23,1.35-.75.13.1.58.75-.13.58,3.34c.09.52.27.87.55,1.06.28.19.66.24,1.14.15l.74-.13-.1-.59-.63.11Z"/><path class="cls-2" d="M67.51,18.92c-2.65,0-4.8,2.15-4.8,4.8s2.15,4.8,4.8,4.8,4.8-2.15,4.8-4.8-2.15-4.8-4.8-4.8ZM69.06,26.09h-.44v-2c0-.38-.1-.67-.28-.87-.19-.2-.45-.3-.78-.3s-.61.11-.81.32c-.2.21-.3.53-.3.94v1.91h-.45v-4.74h.45v1.84c.11-.21.27-.37.49-.49.22-.12.46-.17.73-.17s.5.06.71.17c.21.11.38.28.5.51.12.23.18.51.18.84v2.05Z"/><path class="cls-4" d="M68.38,22.7c-.21-.11-.45-.17-.71-.17s-.51.06-.73.17c-.22.12-.38.28-.49.49v-1.84h-.45v4.74h.45v-1.91c0-.41.1-.73.3-.94.2-.21.47-.32.81-.32s.59.1.78.3c.19.2.28.49.28.87v2h.44v-2.05c0-.33-.06-.61-.18-.84-.12-.23-.29-.4-.5-.51Z"/></g></svg>